<svg id="Layer_1" data-name="Layer 1" xmlns="http://www.w3.org/2000/svg" xmlns:xlink="http://www.w3.org/1999/xlink" viewBox="0 0 338.91 276.6"><defs><style>.cls-1{fill:#fedd00;}.cls-2{fill:#f6eb61;}.cls-2,.cls-4,.cls-5,.cls-6,.cls-7{fill-rule:evenodd;}.cls-3{fill:#fff;}.cls-4{fill:#ffc27b;}.cls-5{fill:url(#linear-gradient);}.cls-6{fill:url(#linear-gradient-2);}.cls-7{fill:#fecb8b;}.cls-8{fill:#fb637e;}.cls-9{fill:#825dc7;}.cls-10{fill:#00b5e2;}.cls-11{fill:#48d597;}</style><linearGradient id="linear-gradient" y1="792.09" x2="1" y2="792.09" gradientTransform="translate(402.72 73695.99) rotate(180) scale(95.88 92.62)" gradientUnits="userSpaceOnUse"><stop offset="0" stop-color="#cb9576"/><stop offset="1" stop-color="#9e6a37"/></linearGradient><linearGradient id="linear-gradient-2" x1="0" y1="792.09" x2="1" y2="792.09" gradientTransform="matrix(95.88, 0, 0, -92.62, 209.28, 73695.99)" xlink:href="#linear-gradient"/></defs><title>logo2</title><ellipse class="cls-1" cx="167.8" cy="108.43" rx="83.18" ry="83.15"/><path class="cls-2" d="M222.92,133.65c1,.37.73-1.92,1.14-2.86a42,42,0,0,1,2.85-4.7c3.26-5.39,7.38-9.42,11.94-13.65.57-.52,4.16-3.81,5.18-2.78,2,2-4.44,7.64-5.62,8.71a56.08,56.08,0,0,0-11.14,15c-1.59,3.32-3.36,7.66-6,10.28-1.57,1.57-2-1.16-1.18-2.38,1.59-2.47,2.64-5.59,4.22-8.33" transform="translate(-135.92 -76.66)"/><path class="cls-2" d="M257.76,91.71c-.14-.18.1-.18.17-.27.64-.84,2.48-1.65,3.4-2.11,3.48-1.73,7.08-3.2,10.56-4.93a82.36,82.36,0,0,1,25.78-7.72c1.12-.14,8.07.27,8.43,1,.5,1-3.44,2.11-4.29,2.23-1.51.21-2.92,1-4.41,1.35-3.93.81-8,1.12-11.86,2.08-9.55,2.36-18.17,7.43-26.85,11.75a36.15,36.15,0,0,1-3.35,1.55c-1.85.68-6.42,1.41-3.09-1.32,2.4-2,5.65-3.44,8.4-4.8" transform="translate(-135.92 -76.66)"/><path class="cls-2" d="M303.5,91.71c.26.14,2-.66,2.21-.69a37.43,37.43,0,0,1,4.72-.52,74.57,74.57,0,0,1,18.86,1.66,39.72,39.72,0,0,1,9.91,4.07c.13.07,2.66,2.48,2.5,2.65-.32.33-1.34.12-1.7.06-1.84-.27-3.67-.32-5.51-.65s-3.48-1.05-5.25-1.47a133.06,133.06,0,0,0-14-2.13,112.94,112.94,0,0,0-14.72-.52,24.28,24.28,0,0,1-3.82-.26c-.16,0-1.07-.07-1.08-.5s2-.92,2.18-1c2.73-.87,5.46-.6,8.22-1.14" transform="translate(-135.92 -76.66)"/><path class="cls-2" d="M362.7,106.8c-.14.18.44-.08.67-.07a4.16,4.16,0,0,1,1.42.52,31.94,31.94,0,0,1,5.11,3.59c5.46,4.46,10.62,9.33,14,15.63.85,1.63,1.87,3.24,2,5.11,0,.34.13,1.22-.21,1.51-.58.52-2-1.26-2.31-1.6-2.29-2.93-4.39-6.05-6.81-8.88a84.27,84.27,0,0,0-13.32-13.11c-1.12-.84-2.14-1.82-3.27-2.64-.37-.27-1-.54-.69-1.1.15-.29,1.08,0,1.24,0,1,.22,1.91.51,2.86.76" transform="translate(-135.92 -76.66)"/><path class="cls-2" d="M344.24,81.79c-.06.19,8.5,2.54,10.64,3.42,6.73,2.77,14.32,7.32,19,12.94.88,1.06,4.38,3.72,3.37,5.4-.59,1-3.81-1.49-4.45-1.89-2.94-1.84-5.48-4.28-8.5-6.07-5.33-3.17-10.67-6.67-16.31-9.3-2.82-1.32-6.19-1.89-8.9-3.24-.8-.4,1.9-1.56,2.16-1.62,1.79-.36,4.49,1,6.07,1.49" transform="translate(-135.92 -76.66)"/><path class="cls-2" d="M412.18,169.68v-3A32.24,32.24,0,0,0,411,159.5c-1.6-6.94-4.7-18.46-9.84-23.6-1-1-4.25-5.84-5.53-5-.11.07,2.28,4,3.38,6.47,2,4.43,4,8.93,5.66,13.48,2.46,6.77,2.59,14,4.31,20.9.36,1.42.88,6,2.57,6.88.21.1,1.44-3.14,1.48-3.38.63-4.2-.67-8.44-1.48-12.53" transform="translate(-135.92 -76.66)"/><path class="cls-2" d="M199.36,169.46c-.37.14-.57-1.72-.5-3,.5-9,4-16.74,8.81-24.26.2-.32,1.43-3.23,2.14-2.67,1,.79-5.09,15.3-5.21,15.87-1.59,7.38-1.08,19.39-3.43,25.75-1.48,4-2.16-12.12-1.28-14.81" transform="translate(-135.92 -76.66)"/><path class="cls-3" d="M244.49,188a20.6,20.6,0,0,1,8.53-1.84c.23,0,.46,0,.7,0a20.63,20.63,0,0,1,37.62-5.43,28.09,28.09,0,0,1,51.23,1.6,15.91,15.91,0,0,1,14.82,1.48,17.6,17.6,0,0,1,32,1.81A23.28,23.28,0,0,1,419.57,216,21.88,21.88,0,0,1,439,231.11a31.44,31.44,0,0,1,4-.27,31.79,31.79,0,1,1-20.69,55.91,36.79,36.79,0,0,1-41,17.47,26.62,26.62,0,0,1-13.24,17.55A24,24,0,0,1,331,339a26.56,26.56,0,0,1-48.34-2.73,35.14,35.14,0,0,1-47.36-39.52A39.15,39.15,0,0,1,210,278.5a23.21,23.21,0,0,1-39-13.09,30.14,30.14,0,0,1-5.57.53A29.56,29.56,0,1,1,183,212.58,39,39,0,0,1,244.49,188Z" transform="translate(-135.92 -76.66)"/><path class="cls-4" d="M412.09,327.56a86.39,86.39,0,0,1,20.68-14.67c-19.2-5.85-40.73-7.51-60.48-6.3V347.3a317,317,0,0,1,63.44,6A245,245,0,0,0,412.09,327.56Z" transform="translate(-135.92 -76.66)"/><path class="cls-5" d="M402.71,332.61l-30.42-11.09v25.71Z" transform="translate(-135.92 -76.66)"/><path class="cls-4" d="M199.91,327.56a86.39,86.39,0,0,0-20.68-14.67c19.2-5.85,40.73-7.51,60.48-6.3V347.3a316.87,316.87,0,0,0-63.43,6A243.67,243.67,0,0,1,199.91,327.56Z" transform="translate(-135.92 -76.66)"/><path class="cls-6" d="M209.29,332.61l30.42-11.09v25.71Z" transform="translate(-135.92 -76.66)"/><path class="cls-7" d="M402.72,282.49a744.7,744.7,0,0,0-193.44,0v50.12q98.49-12.84,193.44,0Z" transform="translate(-135.92 -76.66)"/><path d="M226.28,306a2.17,2.17,0,0,1,.44.14,2.62,2.62,0,0,0,.62-.08,1.28,1.28,0,0,1,1.18.39,3,3,0,0,1,1.39.57,1.83,1.83,0,0,1,.79.77l.52.07a.47.47,0,0,0,0-.25l0-.05a1.24,1.24,0,0,1-.43-.55c0-.13.18-.2.55-.27l.07-.12c0-.06-.1-.1-.26-.1l-.08,0c-.07,0-.26-.12-.54-.4v-.06a.39.39,0,0,1,0-.19l0-.08c0-.11.09-.17.13-.17h0c0,.14.35.18,1.05.21l.39-.1.1.12v.3c.49.34.77.57.79.7a.85.85,0,0,1-.25.55v0l0,.2.45,0c.09,0,.16.09.15.19a2.45,2.45,0,0,0,0,.34,5.49,5.49,0,0,0,.38.91c0,.09.09.19.24.33l-.14.35c.07.19.13.32.14.38l-.1.44v.05c.09,0,.21.3.37.86l-.07.53a1.41,1.41,0,0,1,.16.38l-.08.43a.43.43,0,0,1,.24.31,5.72,5.72,0,0,0-.21,1.32.61.61,0,0,0,.06.13l0,.25.21.44v.09a.57.57,0,0,1,0,.25l.06.48a.68.68,0,0,1-.13.27,1.31,1.31,0,0,1,.22.64s.07,0,.1.12-.08.26-.28.44c0,.07.07.19.25.35a3.25,3.25,0,0,1,.18.4v0c0,.11-.26.26-.82.42v.13l.22,0c.44-.05.66.1.7.43l0,.13a1,1,0,0,1-.05.34l-.09,0h-.16v0a.91.91,0,0,1,.47.55,4.62,4.62,0,0,1-.56.56,2.87,2.87,0,0,1-.75.23l-.28,0-.18.12a1.2,1.2,0,0,1-1.39-.7,1.66,1.66,0,0,0-.49-.75v0a.55.55,0,0,1,.13-.39v-.09l-.11-.12,0-.16a.58.58,0,0,1,0-.18c-.07-.21-.3-.3-.67-.25l-.48.33h0a4.29,4.29,0,0,0-.56-.15h0c0,.07,0,.09,0,.1l.16.22c0,.31-.32.53-1,.65,0,.11-.06.21-.2.33l-.09,0h-.31l.05.08c0,.25-.13.4-.37.41H228a2,2,0,0,1-.5-.07c-.08.08-.14.11-.19.09a1.4,1.4,0,0,1-1-.23h0s-.08.05-.07.1.2.4.56.6v0a3,3,0,0,1-.62.57,1.12,1.12,0,0,1-.32-.19l-.35.05s-.09,0-.15-.12v-.29h-.06a1.07,1.07,0,0,1-.81.5,1.22,1.22,0,0,1-.56-.33l-.28.06-.29,0c0,.09,0,.14-.07.12s-.09,0-.1-.1l-.33.11c-.15,0-.39-.13-.68-.43a.56.56,0,0,0-.3-.09c0,.18-.12.26-.21.27-.34-.05-.51-.14-.53-.29a.93.93,0,0,0,.14-.33l-.23-.09c0,.14,0,.18-.05.19s-.09,0-.1-.08,0-.09.12-.1v0c0-.08-.15-.13-.4-.17h0a.24.24,0,0,1-.13.21l-.18,0s-.1-.13-.16-.41a.79.79,0,0,1-.8-.5v-.05c.25-.5.49-.77.68-.82v-.13c-.14,0-.32-.23-.53-.65a.29.29,0,0,0-.31-.14l-.18.38a3.41,3.41,0,0,1,.41.55s.07,0,.13.12a.09.09,0,0,1-.08.1h-.07A.75.75,0,0,0,219,319a.14.14,0,0,1-.12.06c.14.27.2.42.21.44v0s0,.09-.09.14H219s-.09,0-.15-.11v-.22a.37.37,0,0,1-.29-.13l0-.27c-.22,0-.42-.28-.65-.9-.05,0-.1-.1-.17-.31a.69.69,0,0,1,.34-.67c-.15-.14-.23-.22-.24-.26l0-.21-.07-.37a1.54,1.54,0,0,1,.36-.87c0-.09,0-.13,0-.14a1.93,1.93,0,0,0-.41-.62c0-.11.08-.25.23-.47a1,1,0,0,1-.11-.32v-.05c0-.11.13-.17.29-.19l.2,0v0c-.13-.14-.19-.23-.19-.27s.07-.28.16-.31h0a1.66,1.66,0,0,0,.32.23l.13,0v-.08c-.22-.2-.33-.34-.35-.47a1.36,1.36,0,0,1,.15-.27v-.06a.51.51,0,0,1-.15-.3v-.09a1.1,1.1,0,0,1,.21-.47c0-.33.09-.5.4-.54s.56-.16.56-.38.43-.5,1-.73c0,0,0,0,0,0l-.28-.26a1,1,0,0,1,.42-1l.63-.28s.12-.1.28-.3.08-.05.14-.06.29,0,.3.05.16-.15.35-.45c.24,0,.35-.2.32-.48a.29.29,0,0,1-.19-.25c0-.08.27-.21.83-.32l.13,0c.29.17.44.3.46.46a3.54,3.54,0,0,0,.43,0l0-.09a.52.52,0,0,1-.17-.29l.11,0a2.37,2.37,0,0,0,.81.08A5.82,5.82,0,0,0,226.28,306Zm-.45,2.11q0,.23-.42.39h0a3.64,3.64,0,0,0-1-.08l-.26.08-.42,0c-.31.4-.55.61-.73.63a1.65,1.65,0,0,0-.41,0,3.07,3.07,0,0,0-.31.71,1.08,1.08,0,0,0-.35.63c-.39,0-.58.29-.59.76-.07,0-.12.13-.13.42a2.81,2.81,0,0,1-.59.43c0,.23-.09.35-.2.36a.51.51,0,0,0-.28-.05v.11a1.49,1.49,0,0,0,.24.24l0,.17-.37.45.06.35v.23l.07.23a1.83,1.83,0,0,0-.3.78,7.69,7.69,0,0,0,.19.87c0,.13-.13.35-.43.61.42.33.63.57.65.75a.72.72,0,0,1-.22.2c0,.09.2.22.61.42,0,.09.18.24.5.45a.68.68,0,0,0,.15.27.57.57,0,0,1,.25-.1c.11,0,.28.1.49.32a.7.7,0,0,1,.68.23l.3-.06h0a.66.66,0,0,1,.43.22h.09l.24-.08.69.16h0l.26-.08a.7.7,0,0,0,.3.06,1.81,1.81,0,0,0,.38-.12.41.41,0,0,0,.19,0h0a1.23,1.23,0,0,1,.74-.54h0a.38.38,0,0,1,.16,0c.09,0,.16-.15.21-.43a2.54,2.54,0,0,1,.61-.34l.2,0a2,2,0,0,1,1.26-.5c.22-.22.33-.37.33-.44s.14-.49.45-.82c0,0,.32-.46,1-1.3a7.27,7.27,0,0,0,.06-1.26s.08-.07.13-.22a3.13,3.13,0,0,1-.07-.43l0-.1c-.05,0-.09-.16-.14-.4,0,0,.17-.25.49-.71l-.05-.08a.26.26,0,0,1,.24-.24,1.76,1.76,0,0,0-.77-.41l-.06-.09,0,0a1.68,1.68,0,0,1,.28-.62,2.27,2.27,0,0,1,0-.79,2.42,2.42,0,0,1-.57-.28l-.16,0a.51.51,0,0,1-.31.19h0c-.68,0-1.05-.3-1.08-.74-.31,0-.46-.14-.51-.54,0,0,0-.08-.08-.08a2.44,2.44,0,0,1-.56.36.89.89,0,0,1-.34-.09.38.38,0,0,0-.13,0l-.87,0h-.09l-.2-.15Zm-5.75,1h0s.09,0,.15.12v.07a.08.08,0,0,1-.08.09l-.13,0c-.05,0-.07,0-.08-.08v-.07S220,309.22,220.08,309.17Zm11.35,2.2v.05s0,.08.13.11v-.09l-.12-.07Zm2.23,5.13v.07h.09s.08,0,.08-.08Zm-2.82,1.07v.09s.06.08.18.13l.13,0,0-.15c0-.07,0-.09-.08-.08Zm-2.73,1.34s0,.09.07.08h.14a.69.69,0,0,1,.31-.2s-.06-.08-.15-.11C228.22,318.77,228.1,318.85,228.11,318.91ZM221.74,320l0,.13s0,.06.12.1H222c.06,0,.08,0,.08-.08S221.92,320,221.74,320Zm2.43.68,0,.18h.25c.06,0,.08,0,.08-.09v-.05Z" transform="translate(-135.92 -76.66)"/><path d="M239.67,304.07l.13,0s.09,0,.15.12l0,.27a1,1,0,0,1,.49.15V305a2.71,2.71,0,0,0,.3,1.15l0,.23a1.8,1.8,0,0,1,.13.36c0,.05-.08.17-.26.34v.09c.13,0,.23.13.29.48.09,0,.21.29.35.88,0,0,.08.06.11.17a.45.45,0,0,0,0,.18,5.73,5.73,0,0,0,.33.61c0,.05-.12.15-.32.35a3,3,0,0,1,.48.86V311a.83.83,0,0,1,.22.21l0,.26,0,.14a1.77,1.77,0,0,1,.63.36l0,.18a.49.49,0,0,0-.1.32c.13.39.23.58.37.56s.21.14.28.42l.4,0v0a.29.29,0,0,0-.06-.17l.65-.89-.07-.31v-.13c0-.13.06-.25.22-.4a.43.43,0,0,1,.23-.42l0-.09a.64.64,0,0,1-.12-.33c0-.11.13-.19.44-.26l0-.18v-.31h-.13c-.15,0-.22,0-.25-.11l0-.15c0-.07.06-.12.19-.15s.27.06.29.26c.31,0,.5-.14.57-.35,0,0,0,0,0-.05h.13l.14.08c.38,0,.57-.15.55-.28s-.05-.28-.1-.64c.29-.2.42-.42.4-.61.11,0,.18-.07.17-.15v-.05a1.31,1.31,0,0,0-.12-.32v-.13a1.07,1.07,0,0,1,.22-.51l-.15-.19,0-.18a.36.36,0,0,1,.35-.25v0c.06,0,.18-.15.36-.41,0-.16-.15-.32-.41-.5v-.18a.26.26,0,0,1,.25-.15c.15,0,.22,0,.23.06a1,1,0,0,0,.47-.42.2.2,0,0,1,.13-.06c.11,0,.18.07.19.12a.67.67,0,0,1,.34-.13h0a.54.54,0,0,1,.35.1s.16-.15.32-.39l.22,0a.27.27,0,0,1,.17.21c0,.18-.13.25-.26.27v.13a1.26,1.26,0,0,1,.33.41,3.18,3.18,0,0,1-.45,1.56,4.07,4.07,0,0,1-.63,1.07,1.25,1.25,0,0,1-.2.66,2.07,2.07,0,0,1-.39,1.31l-.5,1.65c-.13.08-.25.45-.41,1.13-.27.21-.4.4-.38.62a5.5,5.5,0,0,0-.29.94,4.28,4.28,0,0,1-.29.72A2.48,2.48,0,0,1,246,316c0,.26-.27.49-.85.68v.09c.14.1.21.16.22.2l0,.2-.13.28,0,.18c.06.19.09.3.1.34v.16a.33.33,0,0,1-.31.25,1.09,1.09,0,0,1-.33-.19,1.06,1.06,0,0,1-.22.47l.74.32v.12c0,.11-.22.22-.7.29a4.32,4.32,0,0,0-.62,0c-.05,0-.09,0-.1-.08a.36.36,0,0,0,.07-.2l-.09,0h-.09c-.05,0-.12.19-.15.57h-.09a1.56,1.56,0,0,0-.69-.25,2.67,2.67,0,0,1-.39-1c-.33,0-.54-.34-.69-1.18-.13,0-.27-.21-.4-.69v-.13a.46.46,0,0,1,.24-.43c0-.11-.27-.28-.69-.53a7.8,7.8,0,0,0-.59-1.22,2.54,2.54,0,0,0-.7-1.67l-.89-2.56c0-.2,0-.31.06-.32a4.73,4.73,0,0,1-.38-.69v-.05a.8.8,0,0,1,.14-.39.64.64,0,0,1-.45-.54.87.87,0,0,1,.12-.61v-.09c0-.06,0-.08-.1-.08a.9.9,0,0,1-.57.33c-.69-.25-1.05-.48-1.07-.68a.66.66,0,0,0-.06-.22.55.55,0,0,0,0-.18v0l-.07-.22c.26-.13.38-.28.37-.37s0-.15-.08-.35.17-.28.51-.45.41-.46.52-.47h0a2.29,2.29,0,0,1,.54.08,3.3,3.3,0,0,0,.88-.4.68.68,0,0,0,.34.06Zm5.85,4.22s.15,0,.35,0l.13-.06.15.16c0,.23-.12.39-.44.47h-.05c-.24,0-.39-.1-.39-.17l0-.17C245.32,308.37,245.41,308.3,245.52,308.29Zm-.54,2.52c0,.05.1.13.29.24h0l0-.13s-.07-.11-.24-.2S245,310.77,245,310.81Zm-.33.9-.07.28a.64.64,0,0,0,.28.33.83.83,0,0,1,.29-.21h.36l.08-.14a1.15,1.15,0,0,0-.34-.28l-.31,0Z" transform="translate(-135.92 -76.66)"/><path d="M257.33,301.24a.32.32,0,0,1,.24.31l0,.16h.11a1,1,0,0,0,.27.07c.12-.23.22-.35.35-.36h.07a1.13,1.13,0,0,1,.61.24,1.83,1.83,0,0,0,.41.06l.24-.06c.13,0,.25.13.37.46.88.18,1.36.41,1.51.64.07,0,.19.12.39.4s.48.23.48.29l0,.16a.53.53,0,0,0-.09.29q.09.33.15.33h.11v0l-.06-.28c0-.11.11-.23.37-.32a.26.26,0,0,1,.2.23,1.51,1.51,0,0,0,0,.34c.22,0,.49.41.8,1.27.23.1.35.18.38.27v.08a3,3,0,0,0,0,.32,1.65,1.65,0,0,0,.4.61c0,.18.16.33.39.46a.59.59,0,0,1,.06.16,1.42,1.42,0,0,1-.2.34c0,.07.14.13.41.2a1.54,1.54,0,0,1,.2.25c0,.67-.06,1-.22,1h0a.91.91,0,0,1-.39-.17h-.07a1.36,1.36,0,0,1-.55.38h0a2.47,2.47,0,0,1-.61-.18,1.24,1.24,0,0,1-.29.11,1.21,1.21,0,0,1-1.1-.5l-.33,0-.4.07-.49-.12-.22.06-.46-.18a3.19,3.19,0,0,0-.79.19,3.68,3.68,0,0,0-1.2-.38l-.54-.07a1.41,1.41,0,0,0-.52.15l-.83-.1-.46.08-.17-.08c-.55,0-.86.29-.9.74,0,0-.08.09-.09.29l0,.4a1.21,1.21,0,0,1-.39.7v.08a2.44,2.44,0,0,1,.19.52,2.82,2.82,0,0,0-.05.85,2.68,2.68,0,0,0-.08.65,8.49,8.49,0,0,1,.16,1l-.07.25a4.32,4.32,0,0,1,.95.77,6.88,6.88,0,0,0,.9.18,1.86,1.86,0,0,1,.39-.12l1.12.12c0,.07.25.09.76.08,0,0,.1.08.27.07a.68.68,0,0,1,.59-.43c.07,0,.27,0,.61,0l.63-.18a.4.4,0,0,0,.22.08l1.11-.37.18,0a.53.53,0,0,1,.3.11c.08-.4.24-.61.53-.63a2.8,2.8,0,0,1,.58.13c.05,0,.15-.1.3-.24h.06a2.9,2.9,0,0,0,.41.06h.11a1.52,1.52,0,0,0,.44-.32h.11c.29,0,.44.19.47.63.05,0,.09.06.13.2a.44.44,0,0,0-.05.22,1.93,1.93,0,0,1,0,.31c-.19.15-.29.27-.28.4s.09.06.1.21a1,1,0,0,1-.23.42h-.07a.87.87,0,0,1-.6-.36h-.11a.7.7,0,0,1-.56.33c.23.09.35.24.36.37V316a.35.35,0,0,1-.32.22v0c0,.07.05.09.08.09l.57-.05s.08-.11.13-.34a.56.56,0,0,1,.45-.23c.07,0,.19.18.35.55a.49.49,0,0,1,.24.18v.05c0,.22-.15.34-.48.37,0,0,0,0-.11.05l-.36-.09h-.07a8.45,8.45,0,0,1-1.55.89l-.25,0c-.15,0-.29-.11-.4-.35v-.29h-.07l-.34.13h-.07c-.29-.27-.45-.41-.5-.41a.37.37,0,0,0-.2.24,1.18,1.18,0,0,0,.48.18c0,.09.16.13.5.15l.1.14c-.11.28-.24.4-.42.41H262a3.38,3.38,0,0,1-.48-.12s-.17,0-.47.17c-.63,0-.95-.14-1-.31H260c-.2,0-.28.15-.26.42l-.11.09h0c-.11,0-.25-.1-.44-.3h-.07a1.52,1.52,0,0,0-.37.12l-.17-.46a.21.21,0,0,0-.13,0h0l-.18.24h0a.75.75,0,0,1-.37-.15.13.13,0,0,1-.11,0,1.83,1.83,0,0,0-.61-.11c0,.22-.17.37-.54.44l-.25,0a.65.65,0,0,0-.59-.29.53.53,0,0,1-.55-.41s-.07-.06-.14-.16v-.11l.31-.36c0-.07-.05-.08-.1-.08a.43.43,0,0,0-.13.05c-.56-.11-.84-.31-.86-.6-.21-.1-.32-.38-.36-.89l-.12-.72v-.31a4.18,4.18,0,0,0-.49-.9.73.73,0,0,1-.15-.32,4.34,4.34,0,0,1,.42-1.46v0c-.08-.15-.13-.23-.17-.23a1,1,0,0,0-.52.28h-.06s-.07,0-.12-.11a1,1,0,0,1,.09-.58v-.13a.54.54,0,0,1-.13-.28c0-.31.18-.51.62-.58,0-.07,0-.09.13-.1l.24,0v-.08h-.2c-.28-.16-.42-.3-.43-.46v0l.16-.26v-.13s-.05-.06-.12-.1l-.19.06-.1-.13a3.82,3.82,0,0,1,.14-.77s0-.08,0-.15c0-.38.13-.58.31-.6a.86.86,0,0,1,.46-.41v0a.83.83,0,0,1-.15-.33c.26-.3.45-.47.54-.48a.22.22,0,0,0,.14,0c.39-.11.57-.31.55-.55l0-.38s-.09,0-.16-.14v-.11c0-.07.14-.17.42-.34l0-.09v-.11c0-.09.14-.17.44-.28l.1-.16v0l-.05-.09a.35.35,0,0,1-.19.1H255s-.05,0-.1-.13a.7.7,0,0,1,.6-.66c.08-.34.22-.53.44-.55a1.11,1.11,0,0,1,.8-.34s0-.07.15-.08l.16,0a1.36,1.36,0,0,0-.07-.33C257,301.49,257.07,301.35,257.33,301.24Zm-2.66,2.6h0a.08.08,0,0,1,.07.09V304s0,.09-.13.16h0s-.07,0-.08-.12S254.61,303.86,254.67,303.84Zm4.56.28a2,2,0,0,1-.45-.14c-.13.41-.31.62-.51.64l-.29,0c-.17-.19-.26-.27-.31-.27s-.17.12-.37.38h-.09a3.51,3.51,0,0,1,.22.83c0,.15-.18.37-.58.62l-.08.14c.12.06.17.12.17.19a.86.86,0,0,1-.26.37c.18,0,.3.09.38.33a.24.24,0,0,0,.14,0h0l.06,0,0-.22s0-.09.11-.14h.08l.17.13c.08-.12.18-.2.25-.2l.2,0a.87.87,0,0,0,.73.22l.17-.06a3.39,3.39,0,0,1,.59.18h0a1.92,1.92,0,0,1,.39-.16,3.64,3.64,0,0,0,1.73.22l.52.1.22-.06a.7.7,0,0,0,.32.11h0c.26-.07.39-.14.38-.21a4.81,4.81,0,0,1-.43-1,1.17,1.17,0,0,1-.54-1,5.15,5.15,0,0,1-.95-.91,1.47,1.47,0,0,0-.66-.22l-.18-.28a1.57,1.57,0,0,0-.95.41Zm1-.29h.07v.09s0,.09-.1.14l0-.08v-.05S260.17,303.83,260.21,303.83Zm-4.44.93h.06s.07,0,.06-.09h-.07A.08.08,0,0,0,255.77,304.76Zm.15.65v0l.13,0,0-.09c0-.07,0-.09-.07-.09h0S255.92,305.37,255.92,305.41Zm8.84,10.13c.05,0,.07,0,.07.06v.09a.09.09,0,0,1-.06.1s-.09,0-.12-.13S264.68,315.57,264.76,315.54Zm-7.69,1c0,.13-.11.23-.35.31l-.16.24v0c.44,0,.63-.18.61-.44v-.09l-.07,0Zm3.23.34v0h.14v0s0-.06-.05-.06S260.3,316.81,260.3,316.85Zm.44.48a.24.24,0,0,0,.25.18c.08-.21.18-.3.27-.31v0a1.18,1.18,0,0,0-.37-.18h0C260.82,317,260.76,317.1,260.74,317.33Z" transform="translate(-135.92 -76.66)"/><path d="M267.78,305.47l1,0a1.77,1.77,0,0,1,.29-.05.25.25,0,0,1,.23.25l-.12.23V306a2.6,2.6,0,0,0,.65.39c.27.51.44.79.5.79h.05a.92.92,0,0,1,.58-.34h.13a2,2,0,0,0,.6.33,1.6,1.6,0,0,1,.22-.37H272l.14.09a1.23,1.23,0,0,0,.66-.46,4.63,4.63,0,0,0,.49,0h.22l.4.31h0c.11,0,.24-.1.39-.31h.08a2.23,2.23,0,0,1,.85.51.59.59,0,0,1,.24-.1h.13c.09,0,.14.1.15.26s-.08.18-.12.18a.36.36,0,0,1-.18,0c-.11,0-.15.12-.14.27l.09,0h0a.46.46,0,0,1,.32-.18h.05c.31,0,.49.15.51.53a4.43,4.43,0,0,0,.86.69l0,.08v0c0,.2-.12.32-.38.37.07.13.12.2.19.22h0a.68.68,0,0,1,.37-.24,1,1,0,0,1,.64.39v.13a1.74,1.74,0,0,1-.2.5c0,.11.22.28.58.48v.18a1,1,0,0,1-.19.23v.25a7.8,7.8,0,0,0,.53,1.23l0,.27s0,.09-.13.14l-.29,0V313a1.16,1.16,0,0,1,.58.37,2.11,2.11,0,0,1-.06.6c0,.27.07.47.08.66v.09a.42.42,0,0,1-.2.35l.15.39a.58.58,0,0,0-.07.34c.07,0,.09,0,.09,0l.09,0h.17c.05,0,.1.06.19.17l0,.31a.81.81,0,0,1-.59.76l-.5.07c-.11,0-.25-.1-.47-.33a2.83,2.83,0,0,1-.93-.55.32.32,0,0,1-.31-.26c0-.17.08-.24.1-.24a1.64,1.64,0,0,1-.36-.56v-.05c.1-.56.17-.92.17-1.05s.08-.05.14-.16,0-.24,0-.27a2.52,2.52,0,0,1,.19-.49c-.09,0-.18-.15-.27-.46a2.94,2.94,0,0,1,.09-.45,1.42,1.42,0,0,1-.28-.71s-.09,0-.14-.13v0c0-.12.08-.25.24-.44v-.09a2.18,2.18,0,0,1-.6-.45l-.47-.09a1,1,0,0,0-.31.08,4.34,4.34,0,0,1-.87-.2c0,.07-.11.14-.35.22h-.29a7.34,7.34,0,0,1-.85.33l-.45-.11-.26,0a2.12,2.12,0,0,1,.2.56l0,.25a1.14,1.14,0,0,1,.5.33v.09a.84.84,0,0,1-.2.41c.2.12.32.25.33.36a.49.49,0,0,1-.52.33.52.52,0,0,1-.39-.24h0c0,.2,0,.33-.07.4a1.38,1.38,0,0,1,.22.37,5,5,0,0,1-.14,1.32,3.77,3.77,0,0,1,.33.71.4.4,0,0,1-.33.15l.07.42c0,.24-.18.45-.54.65-.31,0-.55-.17-.72-.54a.65.65,0,0,0-.33-.45c0-.18-.15-.28-.44-.38a.83.83,0,0,0-.3-.58l0-.27a5.81,5.81,0,0,0-.4-1.67l0-.37a.53.53,0,0,0,.12-.32.71.71,0,0,1-.24-.39v-.13l.17-.21v0a1.12,1.12,0,0,1-.51-.75l.07-.32a1.32,1.32,0,0,1-.35-.8v-.18c0-.06-.14-.12-.45-.2l0-.08c0-.2.14-.43.43-.67l-.09-.17-.22.05c-.16,0-.25-.07-.26-.3a1.2,1.2,0,0,1,.18-.34,2.12,2.12,0,0,0-.24-.72v-.18l.08-.31c-.23,0-.37-.2-.48-.66C267.52,305.68,267.61,305.59,267.78,305.47Zm4.41,1.64,0,.09v.08a.08.08,0,0,0,.09.09h.18l.09-.05A.3.3,0,0,0,272.19,307.11Zm-.93.4v.09c.09,0,.14,0,.14,0s.15-.09.21-.23l-.27,0C271.28,307.42,271.26,307.46,271.26,307.51Zm-2.5,1v.09h.14a.09.09,0,0,0,.08-.09Zm3.23-.16v0s.05.09.1.09v-.14Zm-.42,1.84a2.44,2.44,0,0,1-.05.6h.09a1.12,1.12,0,0,1,.41-.2v-.05C272,310.47,271.87,310.34,271.57,310.18Zm.05,1.68,0,.23v.09s.14.12.41.26c.33-.08.5-.16.5-.22a1.35,1.35,0,0,0-.61-.19s-.07-.11-.18-.17Zm6.08,3.47v.08h.06v-.09Z" transform="translate(-135.92 -76.66)"/><path d="M285.51,295.8a1.31,1.31,0,0,1,1,.57.3.3,0,0,1,.32.16v.23a.57.57,0,0,0-.17.24l0,.09-.11.67v.05c.06.39.11.64.11.68s-.1.31-.33.61v.09a5.57,5.57,0,0,1,.21,1.12c-.31.1-.47.53-.45,1.26a8,8,0,0,1-.16,1.05.09.09,0,0,1,.09,0,4.54,4.54,0,0,0,.81-.23,1.63,1.63,0,0,1,.34.1,4.66,4.66,0,0,0,1.29-.32l.43,0,.31-.06c.67.18,1,.33,1,.48-.12.58-.31.88-.53.88a.32.32,0,0,1-.17.27h-.09a3.69,3.69,0,0,1-.49-.08,2,2,0,0,1-1,.59l-.58,0-.25,0a3.77,3.77,0,0,1-1.25.17.62.62,0,0,0-.27,0,3.28,3.28,0,0,1-.37.27l-.27,0a.61.61,0,0,1-.52.37v0h.22a.43.43,0,0,1,.27-.1H285c.05,0,.14.08.27.25a3.76,3.76,0,0,1,0,.47l.06.22a.41.41,0,0,0-.08.27l.05.38a2.17,2.17,0,0,1-.21.31,4,4,0,0,1,.06.51,1.19,1.19,0,0,0-.12.54l.05.19a3.16,3.16,0,0,1-.19.76.48.48,0,0,1,.09.25v.26l-.21.36a.64.64,0,0,1,.14.33v.09c0,.29-.12.45-.41.46s-.42.1-.44.19c.47.09.7.26.7.53a.76.76,0,0,1-.2.47,1.67,1.67,0,0,1,.2.71l0,.37a2,2,0,0,1,.06.45l-.12.22v.11c.2,0,.32.24.38.75.18.21.27.32.32.32a5.22,5.22,0,0,0,1-.37l.09.05c.23,0,.68-.45,1.38-1.27.16,0,.33-.14.5-.41.2,0,.4-.21.6-.66l.8-.8c.31,0,.46-.08.46-.24s.12-.36.38-.57a1.21,1.21,0,0,1,.8-.55c.36.07.54.25.55.51a2,2,0,0,0-.08.34c.25.19.39.32.39.38-.21.43-.4.66-.58.67l-.22,0v.22a6.71,6.71,0,0,0-.63.57l.06.4a.93.93,0,0,1-.89.49,2.4,2.4,0,0,1-1.14,1.17c-.11,0-.31.14-.59.42-.11,0-.22.12-.39.34a4.94,4.94,0,0,1-1.3.31,3.21,3.21,0,0,1-1.4.6h-.22c-.06.29-.19.45-.41.46h-.17c-.23,0-.34,0-.36-.13s0-.13.08-.33l-.09,0-.2.16h-.13c-.31,0-.59-.29-.85-.93v-.11c0-.13.28-.27.9-.42V315s-.05-.08-.14-.13h-.09l-.26.27h0a2,2,0,0,0-.57-.49.74.74,0,0,0-.15-.39c.13-.36.23-.52.3-.52s.09.06.12.19H283l.13-.09c0-.07-.23-.22-.66-.45a1.48,1.48,0,0,1-.19-.48v-.25a.69.69,0,0,1,.08-.35l0-.22c0-.51.11-.78.42-.79a.79.79,0,0,0,.14-.32,1.89,1.89,0,0,0-.49-.89V310c0-.09.12-.22.41-.41,0-.16.16-.45.5-.84a2.74,2.74,0,0,0-.54-.25v-.09a1.27,1.27,0,0,1,.25-.51c0-.05,0-.22-.06-.53a6.72,6.72,0,0,1,.47-.66,2.6,2.6,0,0,1-.48-1.21,1.14,1.14,0,0,0-.38-.07,1.12,1.12,0,0,1-.35.14c-.34,0-.7-.24-1.07-.79v-.09c0-.26.53-.55,1.61-.82a3.33,3.33,0,0,0,.66-.36v0a.83.83,0,0,1-.15-.26c0-.16.09-.23.13-.23l-.05-.08v-.23l.19-.25c-.09,0-.16-.06-.21-.17v-.13c0-.27.19-.45.58-.53v0a.8.8,0,0,1-.24-.53v0a.42.42,0,0,1,.13-.29v-.05c0-.07-.07-.11-.22-.13a.27.27,0,0,1-.13.05l-.1-.13a2.9,2.9,0,0,1,.44-.32l.29-.7a.21.21,0,0,1,0-.17c0-.2.12-.32.28-.32a1.93,1.93,0,0,1-.13-.46l.26-.92a.56.56,0,0,1,.34-.46V297a4.05,4.05,0,0,0-.24-.66v-.09C284.48,296,284.83,295.82,285.51,295.8Zm-2.59,4.4a.1.1,0,0,1,.09.09c0,.07,0,.09-.08.09h-.09v-.09A.09.09,0,0,1,282.92,300.2Zm.46,7.8v.24a.65.65,0,0,1,.29.17,2.88,2.88,0,0,1,.17-.52l-.14-.08h-.18S283.45,307.86,283.38,308Zm-.26,3v.09h.14V311Z" transform="translate(-135.92 -76.66)"/><path d="M297.94,299.52H298v.08h-.09Zm1.55.43h.31a1,1,0,0,1,.47.77c0,.09-.13.22-.41.45v0a1.34,1.34,0,0,1,.47.73,1.26,1.26,0,0,1-.6.91h-.09c-.15-.24-.26-.35-.31-.35a3.73,3.73,0,0,0-.37.65c-.38,0-.55.13-.55.22v.13l.42.09a.55.55,0,0,1,.22,0l.14.18v0c0,.07-.18.16-.53.27,0,.14-.22.27-.69.39l-.31-.05a1.61,1.61,0,0,0-.09.45c.05,0,.16.13.32.42l.22-.05,0,.09c0,.07-.08.09-.26.09a3.72,3.72,0,0,0,.14.73c0,.18-.2.4-.55.71a1.27,1.27,0,0,1-.22.6v0l0,.09,0,.24v.09a.61.61,0,0,1,.14.4.65.65,0,0,1-.22.4l.13.24c0,.22-.24.47-.7.69l-.06.8c.35.07.55.44.56,1.11,0,.26.27.44.82.52,0,0,.23.13.69.22l.09,0h0a2.66,2.66,0,0,1,1.14.19c.55-.21,1.13-.39,1.77-.57a2.16,2.16,0,0,1,.55-.42.84.84,0,0,0,.26.06h.09a1.15,1.15,0,0,1,.73-.25c.47-.31.95-.65,1.48-1.05.22,0,.33-.07.33-.14v-.48a.67.67,0,0,1-.2-.47V309s.08-.11.28-.27c0-.2-.09-.33-.09-.38a2,2,0,0,1,.09-.35,1.25,1.25,0,0,1-.14-.47,1.14,1.14,0,0,1,.58-.27v0a.87.87,0,0,0-.27-.51c.11,0,.17-.2.21-.62a2,2,0,0,0,.47-.34l-.56-.3a2.47,2.47,0,0,0-.45-.82,1.17,1.17,0,0,1,.53-1v-.08c0-.14-.16-.23-.49-.27l-.05-.09v0c0-.24.07-.35.18-.4h.09l.13.09h0l.64-.78h.22v-.09h-.26l-.61-.53a.42.42,0,0,1,0-.15.08.08,0,0,0,.09-.09l.55.08a.48.48,0,0,1,.27-.09.6.6,0,0,1,.6.46c.55,0,.82.15.82.49l-.08.28c.08,0,.15.54.18,1.58a1.53,1.53,0,0,1-.19.29v0a1,1,0,0,1,.25.69v.13c0,.24-.2.45-.6.58v0a.76.76,0,0,1,.74.32v.05c0,.15,0,.37,0,.62-.1.53-.21.82-.3.82a.43.43,0,0,1-.16.05c0-.05-.06-.11-.17-.18v.13l.38.2c.26.22.4.33.4.4-.25.24-.35.42-.35.51s-.05,0-.05.13c.16,0,.32.38.54,1.13.14.06.2.11.23.17v.09l-.09.31a1.64,1.64,0,0,1,.52.93.68.68,0,0,0,.35.62v.18c0,.11-.11.26-.31.47v0c0,.09.18.15.55.22l.05.17,0,.16a4.37,4.37,0,0,1,.71,1.13v0c-.06.49-.19.73-.39.73,0,.07-.09.09-.27.1a1.85,1.85,0,0,1,.1.35v0c0,.05,0,.09-.14.14h-.11a.43.43,0,0,1-.17,0c-.2,0-.31.22-.36.64a.38.38,0,0,1-.26.09c-.13,0-.25-.15-.34-.44a2.08,2.08,0,0,1-.4-.6.34.34,0,0,1-.27-.35c0-.62-.16-.93-.51-.93-.14,0-.27-.26-.41-.66a4.61,4.61,0,0,1-.29-.91l0-.26c0-.05,0-.07-.09-.07a6.18,6.18,0,0,0-.68.38c-.2,0-.34-.08-.4-.08h-.6l-.31.05v0a.51.51,0,0,1,.13.31c0,.27-.1.38-.35.38h-.09l-.13-.06h-.11l-.53.07-.23,0a.5.5,0,0,1,.18.31c-.11.16-.44.23-1,.23a1.67,1.67,0,0,0-.29,0c-.09.18-.18.27-.26.27a1.44,1.44,0,0,1-.6-.13s-.07.09-.18.18h0a.64.64,0,0,1-.31-.13h0a.74.74,0,0,1-.51.13l-.44-.13h-.14c-1,.14-1.48.28-1.5.44l-.27.13a.38.38,0,0,1-.24-.22V314c-.34,0-.69-.24-1.1-.73a.28.28,0,0,1,.29-.22V313c0-.06,0-.08-.11-.08a.6.6,0,0,1-.27.09c-.18-.27-.35-.4-.58-.4l-.24.05c-.07,0-.09,0-.09-.09v0l.29-.21v0h-.29a1.14,1.14,0,0,1-.41-.82,4.36,4.36,0,0,0,.18-.53v0c0-.05-.11-.09-.36-.13,0-.07-.09-.16-.24-.25v-.13a2.14,2.14,0,0,1,.5-.58v0a3,3,0,0,0-.78-.55l0-.31.13-.25a1.4,1.4,0,0,1-.05-.31l.09-.18a1.93,1.93,0,0,1-.05-.35,1.56,1.56,0,0,1,.68-1l.27,0,0-.07v-.09a.51.51,0,0,1-.13-.3c0-.47.1-.69.26-.69a1.39,1.39,0,0,1,.38.08v0c0-.09-.12-.22-.34-.4v0a2.46,2.46,0,0,0,.24-.91c0-.31.19-.56.61-.74l0-.09a2,2,0,0,0-.14-.51c0-.44.3-.91.94-1.45,0-.11.18-.29.55-.51,0-.27.2-.53.58-.82l.2,0a1.73,1.73,0,0,0,.4.15A3.13,3.13,0,0,0,299.49,300Zm5.46.87H305a.08.08,0,0,1,.09.09V301a.08.08,0,0,1-.09.09H305s-.08,0-.11-.14S304.86,300.87,305,300.82Zm-7.14,12.73,0,.18.09,0h0c.07,0,.09,0,.09-.09v0a.08.08,0,0,0-.09-.09Zm11.46,2.56h.09v.05s-.07.11-.18.18l0-.09C309.14,316.2,309.18,316.16,309.27,316.11Z" transform="translate(-135.92 -76.66)"/><path d="M322.38,301.32a.58.58,0,0,0,.18,0h0a.35.35,0,0,0,.18-.05c.35,0,.51.12.5.39a1.75,1.75,0,0,0,.66.46h0l.25-.18h.22a2.33,2.33,0,0,1,.52.92,2.17,2.17,0,0,1,.45.61v0a1,1,0,0,1-.14.35,1,1,0,0,1,.25.61.3.3,0,0,1-.18.3h0l-.29-.09-.09.13,0,.27c-.1.22-.16.33-.23.32a1.19,1.19,0,0,1,.17.54v.09c0,.06-.1.11-.23.1,0,.23.08.34.08.36v.09c0,.07-.22.2-.67.36v.05c.24.27.35.43.34.49s-.13.2-.4.35c0,.29-.19.51-.57.68a.75.75,0,0,1-.78.45,1.79,1.79,0,0,1-.49-.19l-.07,0c-.59-.21-.9-.37-.9-.48v-.13a.59.59,0,0,0,.29-.51.65.65,0,0,1-.12-.4,2.81,2.81,0,0,0,.55-.76c.31-.15.47-.59.49-1.35h-.05a1.74,1.74,0,0,1-.87.3,6.77,6.77,0,0,0-.91-.07c-.55.1-.82.23-.82.37l-.35.57h-.08c-.07,0-.11-.13-.17-.4h-.05c-.24,0-.54.21-.88.67,0,.2-.2.31-.58.3-.2,0-.33-.16-.37-.49h-.17c-.07,0-.12.07-.14.18l.52.63v.15c-.12.22-.23.31-.32.31l-.26-.05a.88.88,0,0,1-.43.21h-.35a1.76,1.76,0,0,1-.36-.09h0c-.05,0-.07,0-.12.13a5.15,5.15,0,0,0,.09,1.18c-.13.26-.29.39-.47.39a4,4,0,0,0,.34.87.79.79,0,0,0-.19.5V311a1,1,0,0,1,.45.88,4.22,4.22,0,0,0,.2.82,1.8,1.8,0,0,0,.08.53c0,.05-.07.09-.18.16s-.13-.07-.3-.25h-.07v0a.77.77,0,0,0,.28.47v.05c0,.13-.12.28-.34.48v0c.3.36.45.59.45.7v0a.57.57,0,0,0-.14.24,1.21,1.21,0,0,1,.13.36c0,.11-.1.18-.19.17a.6.6,0,0,1-.4.46,2.47,2.47,0,0,1-.65.08c-.15,0-.26-.21-.27-.61,0,0,0,0,0,0v-.13c.12-.09.18-.16.19-.22-.26-.27-.4-.43-.39-.48a3.91,3.91,0,0,1-.16-1,6.35,6.35,0,0,1-.62-1.32s.07-.15.23-.33V312a1.57,1.57,0,0,1-.29-1,1.41,1.41,0,0,0,.14-.39,4.08,4.08,0,0,0-.51-1.06,2.08,2.08,0,0,0-.08-.64v-.13a3.87,3.87,0,0,0,.28-.33,4,4,0,0,0-.45-.87v-.23c.05-.26.14-.39.25-.39v-.09c-.24,0-.39-.25-.49-.74s.21-.68.61-.68v0c-.15-.16-.24-.27-.24-.32V305c0-.26.3-.46.92-.54s1,.33,1,.93l0,.27h.07s.16-.15.32-.44h.4a1.51,1.51,0,0,1,.79-.63c0-.2.38-.48,1.14-.88,0-.11.25-.24.7-.43a.93.93,0,0,1,.56-.33.88.88,0,0,0,.66.3l.55.06.05-.07c-.2-.11-.31-.25-.3-.4v-.09s.11-.13.36-.26h.22a.42.42,0,0,0,.29.13h0c0-.17.21-.32.58-.45,0-.2.06-.31.12-.31h.18l.22,0a.68.68,0,0,1,.28-.48l-.05-.07A.82.82,0,0,0,322.38,301.32Zm-3.89,2.56a.46.46,0,0,0-.13.29l.17.13h0c.16,0,.25,0,.27-.12V304C318.83,304,318.72,303.91,318.49,303.88Zm4.27,5.23c.14,0,.25.09.31.27s-.29.26-.85.25c-.11-.05-.15-.09-.15-.14v-.13C322.07,309.27,322.3,309.19,322.76,309.11Z" transform="translate(-135.92 -76.66)"/><path d="M332.39,299.89a.33.33,0,0,1,.21.34v.16h.11a1.16,1.16,0,0,0,.27.1c.14-.22.25-.32.39-.32h.06a1.11,1.11,0,0,1,.59.31,1.51,1.51,0,0,0,.39.1l.25,0c.13,0,.24.16.31.5.86.28,1.31.56,1.43.81.07,0,.18.14.34.44s.46.28.45.35v.16a.64.64,0,0,0-.13.28c0,.22.08.34.12.34h.11v0l0-.29c0-.11.15-.22.41-.27a.25.25,0,0,1,.17.25,1.74,1.74,0,0,0-.08.33c.22,0,.45.46.66,1.35.21.12.32.22.34.31v.09c-.05.17-.07.28-.08.3a1.74,1.74,0,0,0,.33.66.66.66,0,0,0,.34.5.38.38,0,0,1,0,.16,1.82,1.82,0,0,1-.24.32c0,.07.13.14.39.24a2.83,2.83,0,0,1,.17.27c-.08.67-.18,1-.33,1h-.05a1.13,1.13,0,0,1-.37-.22h-.06a1.4,1.4,0,0,1-.59.31h-.05a2.84,2.84,0,0,1-.59-.25,1.42,1.42,0,0,1-.29.08,1.21,1.21,0,0,1-1-.62l-.33,0-.4,0-.48-.17-.22,0-.44-.24a3.76,3.76,0,0,0-.8.1,3.84,3.84,0,0,0-1.16-.51L332,307a1.68,1.68,0,0,0-.54.08l-.81-.18s-.18,0-.47,0l-.15-.09c-.55,0-.9.18-1,.62,0,0-.09.09-.12.28l0,.4a1.22,1.22,0,0,1-.47.65v.09a2,2,0,0,1,.13.54,2.76,2.76,0,0,0-.15.83,3.29,3.29,0,0,0-.16.64,5.73,5.73,0,0,1,0,1.05l-.1.24a4.05,4.05,0,0,1,.85.87,5.11,5.11,0,0,0,.88.28,2.66,2.66,0,0,1,.4-.07l1.1.25c0,.06.24.12.75.16,0,0,.08.09.26.1a.68.68,0,0,1,.64-.35l.59.07.65-.11a.35.35,0,0,0,.22.1l1.14-.24h.18a.46.46,0,0,1,.28.14c.13-.39.31-.59.6-.57a2.91,2.91,0,0,1,.57.2,1.27,1.27,0,0,0,.32-.21h.07c.24.08.37.1.39.11h.11a1.62,1.62,0,0,0,.48-.27h.11c.29,0,.41.23.39.68,0,0,.09.07.11.2a.59.59,0,0,0-.08.22,1.82,1.82,0,0,1,0,.31c-.21.13-.32.23-.33.37s.09.07.08.22a.93.93,0,0,1-.28.39h-.07a.91.91,0,0,1-.55-.43h-.12a.67.67,0,0,1-.58.26c.21.12.32.28.31.42v0a.35.35,0,0,1-.34.19v0c0,.07,0,.09.06.09l.58,0s.09-.1.17-.32a.55.55,0,0,1,.47-.18c.07,0,.17.2.29.59a.47.47,0,0,1,.21.21v0c0,.22-.19.32-.53.31,0,0,0,0-.11,0l-.35-.12h-.06a8.59,8.59,0,0,1-1.65.71h-.25c-.15,0-.28-.14-.36-.39l0-.29h-.07l-.36.1h-.07c-.25-.3-.4-.46-.44-.46a.33.33,0,0,0-.23.21,1.11,1.11,0,0,0,.45.24c0,.09.15.14.48.2l.08.16c-.14.26-.28.37-.45.36h-.07s-.18-.06-.46-.18l-.49.11c-.62-.09-.92-.23-.92-.41h-.13c-.2,0-.29.13-.3.39l-.12.09h0c-.11,0-.24-.12-.41-.35h-.07a2.21,2.21,0,0,0-.38.07l-.11-.47-.13,0h0l-.21.22h0a.75.75,0,0,1-.35-.19.15.15,0,0,1-.11,0,2.16,2.16,0,0,0-.59-.18c0,.22-.22.35-.59.38h-.25a.66.66,0,0,0-.56-.36.54.54,0,0,1-.49-.46s-.06-.07-.13-.19v-.11l.34-.32a.08.08,0,0,0-.08-.09.37.37,0,0,0-.14,0c-.54-.18-.8-.41-.79-.7-.19-.12-.27-.41-.25-.92l0-.73,0-.31a5.22,5.22,0,0,0-.38-.95.6.6,0,0,1-.12-.34,4.23,4.23,0,0,1,.59-1.39v0c-.06-.15-.1-.24-.15-.25a1,1,0,0,0-.54.23h-.06s-.07,0-.11-.11a.88.88,0,0,1,.16-.57v-.14a.56.56,0,0,1-.1-.29c0-.31.24-.48.69-.5,0-.07,0-.09.14-.09l.24.06v-.09h-.2c-.26-.19-.38-.35-.38-.5v-.05l.18-.23v-.14s0-.06-.11-.11l-.2,0-.08-.14a3.89,3.89,0,0,1,.23-.75.19.19,0,0,1,0-.15c.08-.38.2-.57.38-.56a.85.85,0,0,1,.5-.36v-.05a1.1,1.1,0,0,1-.12-.33c.3-.28.51-.43.6-.42a.29.29,0,0,0,.13.05c.4-.08.61-.24.62-.49l.06-.37c-.05,0-.09,0-.15-.16V303c0-.06.17-.14.46-.29l0-.09v-.11c0-.09.16-.15.48-.22l.12-.15v-.05l0-.09a.37.37,0,0,1-.21.08h-.08s-.05-.05-.09-.14a.71.71,0,0,1,.67-.59c.12-.33.29-.5.51-.49a1.12,1.12,0,0,1,.83-.26s0-.06.16-.06l.15.06a1.13,1.13,0,0,0,0-.34C332,300.1,332.12,300,332.39,299.89Zm-2.93,2.28h0a.07.07,0,0,1,.06.09v.09s-.05.08-.14.15h0c-.05,0-.07,0-.06-.13S329.39,302.19,329.46,302.17Zm4.49.8a1.92,1.92,0,0,1-.43-.19c-.18.39-.38.58-.58.57h-.29c-.15-.21-.23-.3-.28-.3s-.18.1-.41.34h-.09a3.21,3.21,0,0,1,.12.85c0,.16-.21.35-.64.55l-.1.13c.11.07.15.14.15.21s-.09.17-.3.34c.18,0,.28.12.34.37a.35.35,0,0,0,.13.05h0l.07,0v-.22c0-.05,0-.09.12-.13h.08l.15.14a.39.39,0,0,1,.28-.16h.2a.82.82,0,0,0,.69.3l.18,0a3.05,3.05,0,0,1,.57.25h0a2.54,2.54,0,0,1,.41-.12,3.65,3.65,0,0,0,1.69.43l.5.15.23,0a.55.55,0,0,0,.3.15h0c.27,0,.41-.09.41-.16a4.57,4.57,0,0,1-.31-1,1.15,1.15,0,0,1-.43-1.06,5.47,5.47,0,0,1-.84-1,1.6,1.6,0,0,0-.63-.3l-.15-.29a1.55,1.55,0,0,0-1,.29Zm1-.18H335v.09c0,.05,0,.09-.12.13v-.13C334.89,302.83,334.91,302.79,335,302.79Zm-4.52.41h.06c.05,0,.07,0,.07-.09h-.06A.07.07,0,0,0,330.44,303.2Zm.08.67v.05l.13.05.05-.09c0-.07,0-.09-.07-.09h0A.08.08,0,0,0,330.52,303.87ZM338.14,315c.05,0,.07,0,.07.07v.09s0,.09-.07.08-.08,0-.1-.13S338.05,315,338.14,315Zm-7.75.08c0,.13-.14.22-.38.27l-.19.22v0c.44,0,.65-.11.66-.37v-.09l-.06-.05Zm3.17.71v0h.13v-.05a0,0,0,0,0,0-.06Q333.56,315.67,333.56,315.74Zm.38.52c0,.14.12.21.23.21.1-.19.22-.28.3-.27v-.05s-.11-.09-.35-.21h0C334.06,315.94,334,316,333.94,316.26Z" transform="translate(-135.92 -76.66)"/><path d="M344,299.94H344c.84.32,1.25.61,1.21.9.95.47,1.38,1.08,1.27,1.78l-.23.48a1,1,0,0,0,.22.74v.05a2.74,2.74,0,0,0,0,1.16c0,.11-.24.23-.66.33h-.2a3.87,3.87,0,0,1-.89-.79c-.15,0-.44-.4-.86-1.16l-.67,0c-.64-.32-.93-.72-.88-1.16l.07-.53a.68.68,0,0,1,.2-.37l-.22-.3a1.18,1.18,0,0,0,.63-.83l0-.11,0-.13c.06,0,.11,0,.11-.08l.24.1Zm-1,6.89.59.06c.72.24,1.05.66,1,1.23a5.71,5.71,0,0,0,.08.63,2.27,2.27,0,0,1-.47.79v.11a2.45,2.45,0,0,1,.31,1.09c0,.13-.1.3-.32.54,0,.22,0,.91,0,2.11a1.61,1.61,0,0,1-.16.45.07.07,0,0,1,0,.05,1.09,1.09,0,0,1,.5-.15c.07.34.15.52.24.53a1.87,1.87,0,0,0,.78.31,1.82,1.82,0,0,0,1.51,0c.36-.16.58-.12.66.1a.42.42,0,0,1,.24.37,2.08,2.08,0,0,0,.23,1.06c-.21.59-.45.86-.74.82a2.89,2.89,0,0,1-.52.15l-.15,0a1.6,1.6,0,0,1-.5-.19.66.66,0,0,1-.49.33c-.48-.07-.72-.22-.68-.46l-.4-.07a.67.67,0,0,0-.42,0c-.07,0-.21-.15-.4-.42a6.08,6.08,0,0,1-1.59-1.94l-.1-.16V314l.15-.37a.62.62,0,0,1-.23-.63,3.59,3.59,0,0,1,.16-.42,4,4,0,0,1-.24-1.08v-.2l.08-.32a2.68,2.68,0,0,1-.26-1.09,1.33,1.33,0,0,1,.19-1.05,3.83,3.83,0,0,1,.67-1.54v-.11C342.84,306.93,342.91,306.8,343,306.83Z" transform="translate(-135.92 -76.66)"/><path d="M359.88,303.3a.35.35,0,0,0,.17.06h0a.44.44,0,0,0,.18,0c.36,0,.5.15.48.42.31.31.52.48.63.49h.05l.25-.16h.22a2.44,2.44,0,0,1,.47.95,2.29,2.29,0,0,1,.41.63v.05a1,1,0,0,1-.16.34,1,1,0,0,1,.22.62.33.33,0,0,1-.2.3h0l-.29-.11-.09.13,0,.27c-.11.21-.18.32-.25.31a1.14,1.14,0,0,1,.14.54v.09c0,.07-.09.11-.23.1,0,.22.07.34.06.36v.09c0,.06-.24.18-.69.32v0c.23.29.32.45.32.52s-.15.19-.43.32c0,.29-.21.5-.6.64a.76.76,0,0,1-.81.41,1.49,1.49,0,0,1-.47-.22l-.07,0c-.59-.24-.88-.42-.87-.53v-.13a.6.6,0,0,0,.32-.49.63.63,0,0,1-.1-.41,2.38,2.38,0,0,0,.59-.73c.32-.13.51-.56.57-1.31h0a1.7,1.7,0,0,1-.88.25,6.35,6.35,0,0,0-.91-.12c-.56.07-.83.18-.84.32l-.38.55h-.09c-.06,0-.1-.14-.14-.41h-.05c-.24,0-.54.18-.91.62,0,.2-.22.3-.6.27-.2,0-.32-.18-.34-.52h-.18c-.06,0-.11.06-.14.17l.48.66v.15c-.13.21-.25.29-.33.29l-.27-.07c-.21.14-.34.2-.43.19l-.36,0a2,2,0,0,1-.34-.11h-.05s-.07,0-.12.13a4.9,4.9,0,0,0,0,1.18c-.15.25-.32.37-.49.36a4.27,4.27,0,0,0,.28.89.86.86,0,0,0-.21.49v.09a1,1,0,0,1,.4.9,4.1,4.1,0,0,0,.16.84,1.72,1.72,0,0,0,.05.53c0,.05-.08.09-.19.14s-.13-.07-.29-.26h-.07v.05a.73.73,0,0,0,.25.48v.05c0,.13-.14.28-.37.46v0c.29.38.42.61.41.72v0a.46.46,0,0,0-.15.23,1.38,1.38,0,0,1,.11.36.22.22,0,0,1-.2.17.59.59,0,0,1-.43.43,1.94,1.94,0,0,1-.65,0c-.15,0-.25-.22-.24-.62,0,0,0,0,0-.05V317c.12-.08.19-.14.19-.21a2,2,0,0,1-.36-.49,5.86,5.86,0,0,1-.1-1,6.32,6.32,0,0,1-.54-1.35c0-.05.08-.15.25-.32v-.13c-.15-.14-.21-.46-.24-1a1.12,1.12,0,0,0,.16-.39A3.71,3.71,0,0,0,350,311a1.69,1.69,0,0,0,0-.65v-.13a2.73,2.73,0,0,0,.3-.31,3.61,3.61,0,0,0-.4-.9v-.22c.07-.26.17-.39.28-.38v-.09c-.25,0-.38-.27-.46-.77s.25-.67.65-.64v0c-.15-.17-.23-.29-.22-.33v-.13c0-.27.32-.45.95-.49s1,.39.92,1l0,.26h.07c.05,0,.17-.14.34-.42l.4,0a1.59,1.59,0,0,1,.83-.58c0-.2.41-.46,1.19-.82,0-.11.26-.22.72-.39a.94.94,0,0,1,.58-.29.89.89,0,0,0,.64.34l.55.09.05-.07a.48.48,0,0,1-.28-.42v-.09s.12-.12.37-.23h.22a.43.43,0,0,0,.28.16h0c0-.18.23-.32.61-.42,0-.2.07-.3.14-.3H359l.21.06a.77.77,0,0,1,.31-.46l0-.07A.8.8,0,0,0,359.88,303.3Zm-4,2.34a.48.48,0,0,0-.16.28l.17.14h0c.16,0,.25,0,.28-.12v-.15C356.18,305.73,356.07,305.68,355.85,305.64Zm4,5.46a.35.35,0,0,1,.29.29c0,.18-.31.25-.86.2-.11,0-.15-.1-.15-.14v-.13C359.11,311.23,359.34,311.16,359.81,311.1Z" transform="translate(-135.92 -76.66)"/><path d="M371.8,303.59l.22,0a1.08,1.08,0,0,0,.25.38c.46.11.69.2.68.29l0,.31H373a5.19,5.19,0,0,1,.91,0H374a.82.82,0,0,1,.28.54h.13c0-.11.11-.16.28-.15s.3.17.47.45c.51.21.74.43.71.68a2.83,2.83,0,0,1,1.37.54.64.64,0,0,0,.61.55,8.66,8.66,0,0,0,.71.68,5.48,5.48,0,0,0,.77,1c0,.09.13.28.41.58a1.16,1.16,0,0,0,.25.67,2.4,2.4,0,0,1,.42,1.51,4,4,0,0,1,.14,1.22.45.45,0,0,0,.13.32v.05a2.25,2.25,0,0,1-.45.73V314c0,.06.21.17.61.33,0,0,0,.31,0,.83v0s0,.08-.15.12a1.24,1.24,0,0,1-.75-.26l-.05.09v0c.19.15.29.25.28.3v0c0,.18-.17.3-.43.29v.05a.68.68,0,0,1,.1.36v.05a3.28,3.28,0,0,0-.13.32v0l.18,0a.31.31,0,0,1,.31.39c0,.18-.26.35-.68.53,0,.38-.23.56-.56.52h-.18l-.43-.18c-.09.3-.2.45-.33.43l-.31-.07c-.13.27-.24.42-.3.41l-.16,0a.91.91,0,0,1-.46-.27c-.14.06-.21.09-.24.16a.4.4,0,0,0,0,.18c0,.22-.44.36-1.25.38a.64.64,0,0,1-.61.34c0,.09-.06.15-.2.18l-.24,0c-.2,0-.32.05-.32.12a.44.44,0,0,1,.06.23l-.14.07h0a1.75,1.75,0,0,1-.41-.18,1.71,1.71,0,0,1-.72.11c-.19-.13-.27-.21-.27-.25v-.05s0,0,.05,0-.09-.21-.25-.22h0c-.05,0-.12,0-.19.14.17,0,.25.09.25.16v.09s-.08.1-.2.16-.25-.1-.24-.21h-.09l-.22.16-.48,0a.59.59,0,0,1-.37.1l-.49-.23a.39.39,0,0,1-.27.06h-.09a3.46,3.46,0,0,1-.65-.38v.05c0,.1-.17.16-.39.13a1.08,1.08,0,0,0-.88-.73,1.33,1.33,0,0,1-.46.11h0c-.67-.18-1-.35-1-.44s0-.09-.08-.09h0a.7.7,0,0,1-.35.19,5.41,5.41,0,0,0-.77-.61c0-.14-.13-.4-.45-.79a2,2,0,0,0-.35-1.12l0-.1a.28.28,0,0,0,.06-.15,4.67,4.67,0,0,1-.74-2.17,3.77,3.77,0,0,0-.09-.83l0-.18s.08-.1.19-.16l.24.07c0-.15-.12-.37-.4-.6v0c.15-.36.26-.55.37-.54v-.05s0-.13-.05-.34l0-.17a2,2,0,0,1,.61-1v0a.52.52,0,0,1-.1-.32,2.33,2.33,0,0,1,.85-.92l0-.11v-.49c0-.13.23-.24.63-.31l.26-.29a1.37,1.37,0,0,1,0-.4s.11-.12.27-.22a.2.2,0,0,0,0-.13c.17-1,.44-1.45.79-1.42h.09a.63.63,0,0,1,.31.21h.09c.05,0,.12,0,.2-.16s-.11-.3-.39-.37l-.11-.19v-.09c0-.26.21-.38.59-.34.15-.14.27-.22.38-.2a1.74,1.74,0,0,1,.61.3c0-.24.22-.38.6-.4l.3.07a1.61,1.61,0,0,0,.5-.53h.05a4.33,4.33,0,0,1,.88.27A1.66,1.66,0,0,1,371.8,303.59Zm-3.23,2.13v0h0a1.08,1.08,0,0,1,.7-.28l0-.22c-.08,0-.13,0-.12-.06S368.88,305.37,368.57,305.72Zm3.77,1.07a.75.75,0,0,1-.39-.26,6.42,6.42,0,0,0-1,0l-.08-.05a2.92,2.92,0,0,1-1.18.41c0,.13-.47.22-1.3.29a7.23,7.23,0,0,0-1.43,1.73c-.15,0-.35.36-.6,1.12-.05,0-.18.16-.39.47l0,.27a3.64,3.64,0,0,0-.37,1s-.09,0-.15.12l.08.14-.18.41a1.73,1.73,0,0,1,.13.5,3.15,3.15,0,0,1-.28.57,3.37,3.37,0,0,0,.26.9,2.22,2.22,0,0,0-.08.35,4.53,4.53,0,0,1,.49,1.09.65.65,0,0,1,.25.68,6.55,6.55,0,0,1,.89.6,1.65,1.65,0,0,1,.92.41l.09,0,.33,0,.56-.16c.13,0,.45.09,1,.19a.27.27,0,0,1,.3-.15h.09a1.07,1.07,0,0,1,.35.57,1.5,1.5,0,0,1,1.15-.37c.15.08.21.13.21.15a3,3,0,0,1,.82-.05v-.09c-.11,0-.14-.08-.13-.25v-.05c0-.06.08-.1.22-.15a.8.8,0,0,1,.33.16c0-.11.2-.2.54-.25l.36,0c.06,0,.17-.13.31-.43a.43.43,0,0,1,.35-.15c.11,0,.22.18.4.43a4.11,4.11,0,0,0,.46.09c0-.16.2-.23.55-.19,0-.25,0-.36-.09-.37H376c-.14.09-.23.15-.32.14l-.05-.14v-.08c0-.07.15-.12.45-.23l.21.16h0a.32.32,0,0,1,.37-.29,1.86,1.86,0,0,0,.47.2s.09,0,.09-.08a1.28,1.28,0,0,1,0-.33,2.41,2.41,0,0,1,.58-.64v-.08a2.28,2.28,0,0,0,0-.37v-.08c0-.23.28-.42.77-.57l.05-.09a.52.52,0,0,1-.46-.31v-.09c0-.15.19-.31.49-.46v0a2,2,0,0,0-.15-.29l0-.22s.08-.08.24-.17a4.44,4.44,0,0,1-.38-1.09l-.08-.05h0l-.27,0c-.09,0-.29-.23-.54-.68-.17,0-.37-.24-.57-.66a9.41,9.41,0,0,1-1.42-1.24c0-.09-.22-.2-.69-.36,0-.13-.29-.29-.91-.49-.29,0-.49-.25-.58-.66s.09-.42.09-.48l-.16-.2Zm6.38,10a2.37,2.37,0,0,0-.2.62l.08.05.18,0c.07,0,.15-.16.28-.53A.71.71,0,0,0,378.72,316.81Zm-3.05,1.2.36,0V318l-.27,0S375.68,318,375.67,318Zm.09,1.32,0,.1a.09.09,0,0,1-.1.08l0-.1A.1.1,0,0,1,375.76,319.33ZM367,319h.05c.22,0,.32.08.34.17s-.13.12-.28.1a.28.28,0,0,1-.23-.2Zm.82.26.38,0a.1.1,0,0,1,.08.1s-.06.08-.15.12h0l-.28-.11Z" transform="translate(-135.92 -76.66)"/><path d="M388,304.59a5.74,5.74,0,0,1,.86.11l.46-.07a3.87,3.87,0,0,1,2.1.35,3,3,0,0,1,1.52.85,2.1,2.1,0,0,1,1.27,1.59l.05.36c0,.18,0,.29-.13.32s-.37-.11-.64-.42l-.05,0-.21.06a4.59,4.59,0,0,1-1.52-1,7.59,7.59,0,0,0-1.82-.46l-.39.09h-.4a1.9,1.9,0,0,0-1.05.65.77.77,0,0,0-.37-.07c0,.07-.13.16-.43.26,0,.13-.2.29-.65.5a2.5,2.5,0,0,1-.61.92c-.16.61-.25.93-.26,1l0,.09c.69.43,1,.71,1.05.9.16,0,.25-.06.24-.13l.24,0c.31-.09.47-.16.49-.16a16.81,16.81,0,0,0,2.55.15,3.6,3.6,0,0,0,2,.65,1.29,1.29,0,0,1,.44.93.57.57,0,0,1,.36.49,1,1,0,0,0-.1.43v0l.21.52a1.38,1.38,0,0,0,0,.31c.3.08.48.24.5.49v0c0,.16-.09.35-.29.57v.16l.22,0c0-.13,0-.2.12-.21s.11,0,.12.13l0,.17a1.36,1.36,0,0,0,.09.35c0,.16-.23.4-.66.72l0,.07a.7.7,0,0,1,.14.29,2.14,2.14,0,0,1-.33,1.21,2.79,2.79,0,0,1,.09.48,1.25,1.25,0,0,1-1,.65.3.3,0,0,0-.14.2,1.16,1.16,0,0,1,.19.41l0,.18c0,.12-.19.24-.61.37a1.27,1.27,0,0,0-.38.85.53.53,0,0,1-.19.13l-.09,0c-.34,0-.48.26-.44.69l-.18.17h-.09l-.41-.34a1.76,1.76,0,0,1-.83.59h-.23a.73.73,0,0,1-.41-.11c-.15,0-.23.06-.23.12h-.36l-.21,0a6.55,6.55,0,0,1-1.58-.54h-.25a.82.82,0,0,1-.39-.05,1,1,0,0,1-.41.2c-.2,0-.34-.13-.45-.48v-.05a1.14,1.14,0,0,1,.05-.35c-.16,0-.45-.17-.87-.58-.06,0-.13-.2-.21-.59-.1,0-.13-.08-.07-.34a2.08,2.08,0,0,1,.09-.39,1.23,1.23,0,0,0,.59-.37l.39-.07c.08,0,.33.05.74.14l.34,0a3.8,3.8,0,0,0,2.17,1l.27,0a4.06,4.06,0,0,0,2.45-1.86c.2,0,.41-.24.57-.66.16,0,.37-.25.65-.66l.23-.08v-.09l-.14-.35a4.88,4.88,0,0,0,.13-1.31l0-.16c-.14-.66-.48-1-1-.91-.36-.31-.61-.48-.77-.45s-.3.09-.39.1a12,12,0,0,1-1.47-.59l-.21.07h-.53a.49.49,0,0,1-.19.24l-.34.05c-.36,0-.78-.26-1.24-.85-.34,0-.74-.3-1.26-1l0-.3.09-.07a.64.64,0,0,0,.31.08h.07l0-.12c0-.09-.23-.16-.69-.24a1.53,1.53,0,0,1-.31-.56l0-.16a.8.8,0,0,0,.22-.48l0-.12a.68.68,0,0,1-.29-.39c.05-.18.1-.26.17-.29l.5-.05,0-.2c-.18,0-.37-.28-.49-.87v-.12c0-.06.13-.16.37-.28l-.07-.28c-.05-.34.41-.57,1.34-.68l.33-.56c0-.23.19-.4.61-.55a.33.33,0,0,1,.32-.25l.51.07A3,3,0,0,1,388,304.59Zm-.71,15.54v0c0,.05,0,.07.1.06s.07,0,.06-.09v0Z" transform="translate(-135.92 -76.66)"/><path d="M253.07,285.26a2.28,2.28,0,0,1,.38.9,5.25,5.25,0,0,1,.35,1.53,4.09,4.09,0,0,1,.22.78c0,.48,0,.76,0,.82s.16.09.16.12a.79.79,0,0,1-.17.43v.09a1,1,0,0,1,.15.4c0,.15,0,.24,0,.25a1.27,1.27,0,0,1,.18.31.46.46,0,0,0,0,.26.24.24,0,0,1,.2.23v.13a.66.66,0,0,1-.11.4.59.59,0,0,0,.2.32v0l0,.37a2.17,2.17,0,0,0,.16.28l0,.2c0,.05-.1.09-.3.14v.1c.23,0,.34.06.36.25l-.08.26a1,1,0,0,1,.37.74c.05,0,.07.06.08.16V295a1.65,1.65,0,0,1-.08.35l.3.82v0c0,.07-.08.14-.25.21,0,.05,0,.09,0,.12a.69.69,0,0,1,.42.35l-.08.45a.67.67,0,0,0,.08.29c0,.19-.11.29-.39.32h0l-.1,0c-.05,0-.11.08-.19.24-.17-.28-.33-.45-.47-.48s0,0-.06,0h-.12a.57.57,0,0,1-.54-.18v-.16l.1-.2v0a.71.71,0,0,1-.37-.47v-.39a2.22,2.22,0,0,1-.06-.35,1.22,1.22,0,0,0,.09-.59.47.47,0,0,1,.17-.07l.34,0c.06,0,.08-.1.07-.2s0-.06-.06-.05a1.6,1.6,0,0,0-.45.14.39.39,0,0,0-.24,0c-.1,0-.18.15-.19.4v.06l0,.19c-.07.23-.12.33-.16.34h-.06l-.22-.14h-.06v0l.17.18v.19q-.13.43-.36.45l-.29.06-.12,0q-.22,0-.39.48a.45.45,0,0,1-.14.07,1,1,0,0,1-.23,0,.4.4,0,0,1-.17.09h0s-.06,0-.06-.07v-.19l-.06,0a1.11,1.11,0,0,0-.24.1l-.21,0a.4.4,0,0,1-.17.09.86.86,0,0,0-.32-.08H250a.48.48,0,0,0-.28.22h-.12l-.2-.1,0,.06v.16a.4.4,0,0,1,.17-.09l.09.13.2-.05h.06s.08,0,.13.11v.1c0,.05-.06.1-.14.15s-.15,0-.15-.06a1,1,0,0,1-.68.28c-.09,0-.14-.06-.14-.09l0,0h0c-.18,0-.28-.11-.3-.36l-.18.15a.23.23,0,0,1-.2-.21h0a2.41,2.41,0,0,1-.34.12.37.37,0,0,1-.31-.36c0-.25-.14-.38-.36-.36a.46.46,0,0,1-.45-.18v-.06s.06-.08.19-.18v0a.56.56,0,0,1-.21-.34.37.37,0,0,0,0-.09l-.06,0a.25.25,0,0,1-.17.07,1,1,0,0,1-.18-.49.45.45,0,0,1,.06-.2A1.18,1.18,0,0,0,246,295a1.38,1.38,0,0,0-.09-.33c0-.05,0-.08.08-.11h.25c.08,0,.11-.07.11-.09v-.09l-.15,0v-.12a1.85,1.85,0,0,1,0-.39c-.07,0-.09-.08-.09-.19a1.89,1.89,0,0,0,.23-.91c.4-.45.65-.66.73-.67h.16l.24,0h0V292c0-.22.14-.35.48-.38a.38.38,0,0,1,.22-.21h.21l.4,0a2.54,2.54,0,0,0,.38-.22h.3a3.15,3.15,0,0,1,.56-.14l.18,0a.94.94,0,0,1,.28-.06.49.49,0,0,1,.47.18.17.17,0,0,1,.17-.11c.05,0,.12,0,.25.11h0c0-.19.08-.28.28-.3l.22-.24h0a.43.43,0,0,1,.29.16c.33,0,.48-.13.47-.33l0-.31c-.16-.09-.24-.14-.24-.18v-.23a5,5,0,0,1-.26-1.26c0-.22.06-.32.06-.34a.55.55,0,0,1-.11-.24v0c0-.74,0-1.21,0-1.39a.44.44,0,0,0,.17-.21.55.55,0,0,1-.16-.31c0-.07.2-.26.62-.5,0,0,0,0,0,0Zm-2.21,6.1v.06h0s.05,0,0-.07v-.06h0S250.85,291.31,250.86,291.36Zm2.37,0v.06h0v-.06Zm-3.48,1.2a1.66,1.66,0,0,0-.49-.18s0,.09-.15.15a.57.57,0,0,0-.25-.06h0c-.36.35-.61.54-.77.55,0,.08-.14.25-.48.49l0,.06,0,.13a.74.74,0,0,1-.16.59c0,.05.06.17.16.42s0,.22,0,.3v.08a1.72,1.72,0,0,1,.34.52.39.39,0,0,1,.24.15l.17,0a1.11,1.11,0,0,0,.47.24h.1a.25.25,0,0,0,.12,0,1.19,1.19,0,0,0,.41.13c.49-.13.77-.27.84-.43.27-.08.43-.17.46-.26.38-.24.58-.38.61-.38.38-.08.56-.15.56-.2a2.26,2.26,0,0,1,.2-.73.42.42,0,0,0-.07-.18,3.22,3.22,0,0,0,.23-.75c-.08,0-.17-.06-.25-.17l0-.13a.37.37,0,0,1,0-.12c-.12-.26-.19-.37-.21-.37h-.14a2.05,2.05,0,0,1-.62-.11c0,.11,0,.17-.08.17a1.59,1.59,0,0,0-.69-.1l-.08,0-.22-.07s-.09.1-.21.3Zm3.32,2s0,.05.1.09.05,0,.08-.11l-.1,0h0A.09.09,0,0,0,253.07,294.61Zm1.48.67v.09h0s.06,0,0-.07l-.06,0ZM252.06,297h.09c.06,0,.09,0,.1.12s-.05.13-.08.13h-.12s0,0-.05-.06v-.08A.09.09,0,0,1,252.06,297Zm-2,1.1h.09v.06h-.09Z" transform="translate(-135.92 -76.66)"/><path d="M261.12,286.49h.14a1,1,0,0,0,.21.23c.31,0,.48.05.48.11l0,.21h0a3,3,0,0,1,.6-.1h.06a.53.53,0,0,1,.24.33H263c0-.07.05-.12.17-.13s.21.07.36.24c.36.08.53.2.54.36a2.14,2.14,0,0,1,1,.2.44.44,0,0,0,.47.3,5.64,5.64,0,0,0,.54.36,3,3,0,0,0,.62.57q0,.09.33.33a.78.78,0,0,0,.24.41,1.59,1.59,0,0,1,.45.95,2.89,2.89,0,0,1,.23.78.31.31,0,0,0,.11.2v0a1.48,1.48,0,0,1-.22.54v0s.16.09.44.14c0,0,.05.21.13.54v0s0,.06-.08.1a.91.91,0,0,1-.53-.09l0,.06v0c.14.08.22.14.22.17v0c0,.11-.07.21-.25.24v0a.52.52,0,0,1,.11.23v0a2,2,0,0,0,0,.23v0h.12a.21.21,0,0,1,.25.22c0,.12-.13.26-.39.43,0,.25-.09.39-.31.4h-.12l-.3-.07c0,.21-.08.32-.17.33l-.21,0c-.06.2-.11.31-.15.31h-.11a.79.79,0,0,1-.33-.13c-.09.05-.13.08-.14.13a.34.34,0,0,0,0,.12c0,.14-.25.28-.78.39a.43.43,0,0,1-.36.29.13.13,0,0,1-.11.14h-.16c-.14,0-.21.07-.2.12a.43.43,0,0,1,.07.14l-.09.06h0A1.16,1.16,0,0,1,264,297a1.28,1.28,0,0,1-.47.15c-.14-.07-.2-.11-.2-.14v0s0,0,0,0a.16.16,0,0,0-.19-.12h0a.22.22,0,0,0-.11.11c.12,0,.18,0,.18.08v.06s0,.08-.11.13-.18,0-.19-.11h-.06l-.12.13-.33,0a.38.38,0,0,1-.23.11l-.34-.1a.27.27,0,0,1-.18.07h-.06a2.72,2.72,0,0,1-.47-.18v0c0,.08-.09.13-.24.14a.72.72,0,0,0-.66-.39.79.79,0,0,1-.29.13h0c-.46,0-.7-.11-.71-.17s0-.06-.06-.06h0a.52.52,0,0,1-.21.17,3.86,3.86,0,0,0-.57-.32c0-.09-.14-.24-.39-.46a1.24,1.24,0,0,0-.36-.7l0-.06a.43.43,0,0,0,0-.11,3.12,3.12,0,0,1-.73-1.34,2.7,2.7,0,0,0-.15-.54v-.11s0-.08.11-.13l.16,0c0-.11-.12-.23-.33-.35v0c.05-.25.1-.39.18-.4v0s0-.08-.07-.21v-.12a1.37,1.37,0,0,1,.29-.72v0a.3.3,0,0,1-.1-.2,1.56,1.56,0,0,1,.45-.7v-.07s0-.16-.05-.32.12-.19.38-.28a1,1,0,0,0,.13-.22,1,1,0,0,1-.05-.26s.06-.09.15-.17a.15.15,0,0,0,0-.09c0-.67.13-1,.36-1h.06a.34.34,0,0,1,.23.1h.06s.07,0,.11-.13-.1-.19-.29-.2l-.1-.11v-.06c0-.18.1-.28.36-.29.08-.11.15-.18.22-.18a1.27,1.27,0,0,1,.44.13c0-.16.1-.27.35-.33h.2a1,1,0,0,0,.27-.4h0a3.21,3.21,0,0,1,.62.07A1,1,0,0,1,261.12,286.49Zm-1.88,1.76v0h0a.73.73,0,0,1,.42-.27v-.14c-.06,0-.09,0-.09,0S259.4,288,259.24,288.25Zm2.59.28a.48.48,0,0,1-.29-.12,4.07,4.07,0,0,0-.65.13l-.07,0a1.87,1.87,0,0,1-.72.41c0,.09-.29.2-.82.34a4.43,4.43,0,0,0-.75,1.29c-.1,0-.18.28-.27.81,0,0-.09.12-.19.35l0,.18a2.16,2.16,0,0,0-.13.7s-.06,0-.08.1l.06.08-.07.29a1.2,1.2,0,0,1,.14.31,1.69,1.69,0,0,1-.12.41,2.32,2.32,0,0,0,.28.56,1.5,1.5,0,0,0,0,.24,3,3,0,0,1,.45.66c.14.05.22.2.24.42a4,4,0,0,1,.65.29,1.13,1.13,0,0,1,.65.17l.06,0h.22l.34-.17c.09,0,.31,0,.67,0a.17.17,0,0,1,.18-.13h.06a.72.72,0,0,1,.29.34,1.07,1.07,0,0,1,.72-.38c.1,0,.15.07.15.08a2.13,2.13,0,0,1,.54-.12v-.06c-.08,0-.11,0-.12-.16v0s0-.07.13-.12a.49.49,0,0,1,.24.07c0-.08.11-.16.32-.23l.24,0s.09-.11.15-.32a.28.28,0,0,1,.22-.13.75.75,0,0,1,.31.23,1.82,1.82,0,0,0,.31,0c0-.11.11-.17.34-.19,0-.16-.06-.23-.1-.23h-.09a.39.39,0,0,1-.2.13l-.05-.09v-.06s.08-.09.27-.19l.15.08h0a.21.21,0,0,1,.21-.23,1.47,1.47,0,0,0,.33.08s.05,0,.05-.07a.8.8,0,0,1,0-.21,1.35,1.35,0,0,1,.3-.48v-.06a.93.93,0,0,0-.07-.24v-.05c0-.15.14-.31.44-.46l0-.07a.36.36,0,0,1-.34-.15v-.06c0-.1.09-.23.27-.36v0l-.13-.17v-.14s0-.07.14-.15a3.08,3.08,0,0,1-.38-.67l-.06,0h0l-.17,0c-.06,0-.22-.12-.43-.39q-.18,0-.45-.36a6,6,0,0,1-1.07-.66c0-.06-.17-.1-.5-.16,0-.08-.22-.16-.65-.22-.19,0-.35-.11-.46-.37s0-.28,0-.32l-.13-.11Zm5.32,5.86a1.59,1.59,0,0,0,0,.43l.06,0h.11c.05,0,.08-.12.13-.38A.63.63,0,0,0,267.15,294.39Zm-1.86,1.14.24,0v-.06h-.17S265.29,295.5,265.29,295.53Zm.21.86,0,.05a.06.06,0,0,1,0,.07l0-.06A.06.06,0,0,1,265.5,296.39Zm-5.77.79h0c.15,0,.22,0,.24.07s-.07.1-.17.1a.17.17,0,0,1-.17-.1Zm.57.08.25,0a.06.06,0,0,1,.06.06s0,.06-.08.09h0l-.19,0Z" transform="translate(-135.92 -76.66)"/><path d="M271.76,285.29a3.26,3.26,0,0,1,.58,0l.29-.11a2.63,2.63,0,0,1,1.42,0,2,2,0,0,1,1.1.37,1.42,1.42,0,0,1,1,.89l.08.24c0,.11,0,.19-.05.22s-.26,0-.47-.2l0,0-.13.07a3.22,3.22,0,0,1-1.12-.51,5.16,5.16,0,0,0-1.25-.08l-.25.1-.26,0a1.27,1.27,0,0,0-.61.55.52.52,0,0,0-.25,0s-.07.12-.25.22c0,.09-.1.21-.37.41a1.7,1.7,0,0,1-.29.68c0,.41-.05.64-.05.68l0,.06c.5.19.76.34.79.46s.16-.07.15-.11H272l.3-.16a11,11,0,0,0,1.69-.21,2.36,2.36,0,0,0,1.36.2.81.81,0,0,1,.4.55.38.38,0,0,1,.29.28.78.78,0,0,0,0,.3l0,0,.19.31c0,.12,0,.2,0,.21.2,0,.34.1.38.26l0,0a.55.55,0,0,1-.13.41l0,.1.15,0c0-.09,0-.13.05-.15s.07,0,.09.07v.12a.9.9,0,0,0,.1.22c0,.1-.11.28-.35.55l0,0a.48.48,0,0,1,.13.17,1.36,1.36,0,0,1-.08.83,2.69,2.69,0,0,1,.12.31.84.84,0,0,1-.61.55.22.22,0,0,0-.06.15.66.66,0,0,1,.17.24l0,.12c0,.07-.09.18-.35.31a.82.82,0,0,0-.15.6.28.28,0,0,1-.11.11h-.06c-.22.06-.29.22-.21.5l-.1.14-.06,0-.3-.18c-.2.28-.35.45-.48.48l-.15,0a.5.5,0,0,1-.28,0c-.1,0-.15.07-.14.11l-.24,0-.13,0a4.64,4.64,0,0,1-1.1-.17l-.16,0a.7.7,0,0,1-.27,0,.71.71,0,0,1-.24.17c-.13,0-.24,0-.36-.26v0a.63.63,0,0,1,0-.24c-.1,0-.31-.05-.64-.27q-.06,0-.21-.36s-.09,0-.08-.22a1.1,1.1,0,0,1,0-.27c.09,0,.2-.13.34-.31l.25-.09c.06,0,.22,0,.5,0l.22-.05a2.57,2.57,0,0,0,1.55.39h.17a2.68,2.68,0,0,0,1.39-1.5c.13,0,.24-.21.3-.51.1,0,.21-.2.34-.51l.15-.08,0-.05-.13-.22a3.4,3.4,0,0,0-.07-.87l0-.1c-.17-.42-.43-.59-.76-.48-.28-.16-.46-.24-.56-.21l-.25.12a9.2,9.2,0,0,1-1-.21l-.13.06-.35.06a.32.32,0,0,1-.1.19l-.21.07c-.24.05-.54-.08-.91-.41-.22.07-.53-.11-.95-.5l-.05-.19.05-.06a.39.39,0,0,0,.21,0h.05l0-.07c0-.06-.16-.08-.48-.08a.9.9,0,0,1-.26-.33l0-.1a.53.53,0,0,0,.09-.35l0-.07a.49.49,0,0,1-.23-.22.28.28,0,0,1,.08-.21l.32-.1,0-.13c-.11,0-.27-.13-.42-.51l0-.07c0-.05.07-.12.21-.23l-.09-.18c-.07-.22.2-.42.8-.6l.16-.41c0-.14.07-.28.33-.43a.22.22,0,0,1,.18-.2l.34,0A2,2,0,0,1,271.76,285.29Zm1.38,10.27v0s0,0,.08,0,0,0,0-.06v0Z" transform="translate(-135.92 -76.66)"/><path d="M290,284.43c.06,0,.11.07.17.2a.21.21,0,0,1,.15-.06.61.61,0,0,0,.22.39h0a1.28,1.28,0,0,0,.32-.19h.2c.45,0,.67.09.67.13a.25.25,0,0,1,.16-.06s.06,0,.06.05v0c0,.05-.07.08-.16.08v.05c0,.07.26.11.76.14.07.22.19.32.37.31,0,0,0,0,0,0a.35.35,0,0,1,.16-.06c0,.16.17.29.49.4a1.14,1.14,0,0,1,.12.28.71.71,0,0,1-.05.16c.25.07.4.14.45.24v.16c0,.18.11.28.32.28s.16.11.26.35a.2.2,0,0,1,.12.2v.07a.43.43,0,0,0-.08.21l.16.46v.08l-.23.2v.14c.11.11.17.2.17.27v.39l-.15.36s-.06.06-.07.16a.57.57,0,0,1,.17.31s-.05.1-.18.18-.07.16-.22.26q0,.33-.48.39a.87.87,0,0,1-.36.19l-.15,0a.56.56,0,0,0-.18.1l0,0v.09a.21.21,0,0,1-.13.2H293a.85.85,0,0,1-.35.18.35.35,0,0,1-.25-.09h0c-.1.12-.17.18-.2.18l-.14,0-.11,0-.18-.07c-.22,0-.34.07-.34.18s-.1.15-.3.19H291c-.12,0-.18-.07-.18-.25s-.15-.12-.17-.12h0s-.09.07-.19.24c-.25-.17-.38-.3-.38-.41l-.13,0h0s-.06,0-.11-.1a.82.82,0,0,0,0-.18s-.12,0-.27,0v0c.15.1.23.18.23.27s-.1.26-.26.26a.41.41,0,0,0-.15,0l-.23,0a.67.67,0,0,1-.47-.26h0c0,.17-.07.24-.11.24h-.06l-.21,0a.44.44,0,0,1-.2.1h-.21s-.06.07-.14.08a.38.38,0,0,1-.21-.1c-.18,0-.25.05-.25.08a3.22,3.22,0,0,0,.43.09l.28.17,0,.18.08.26,0,.15a.74.74,0,0,1,0,.18.63.63,0,0,0-.12.34c-.1,0-.15.05-.15.08s0,.15.08.15l.13,0c.11,0,.15.05.16.17a2.7,2.7,0,0,0-.13.71h.11s.07,0,.1.12-.07.16-.21.16a1.18,1.18,0,0,1-.19.32v0a2.59,2.59,0,0,1,.21.3c.21.06.31.12.32.17v.08s0,.06-.09.09l-.19,0a.68.68,0,0,1-.22.11v.08a.5.5,0,0,1,.32.48.21.21,0,0,1-.14.21,1.5,1.5,0,0,1,.15.6c-.07.08-.13.12-.17.12v0a1,1,0,0,0,0,.23c0,.09-.1.18-.29.26,0,.08.05.11.08.1l.11-.07h0l.11.07.2-.05h0a.52.52,0,0,0,.42.13l0,.11c0,.07-.13.15-.39.21a1.49,1.49,0,0,0-.16.21l.14.16-.22.2H288a1.46,1.46,0,0,0-.32-.21q-.07-.32-.21-.3a1.77,1.77,0,0,1-.29-.77s0-.11,0-.26a3,3,0,0,1-.19-.56.38.38,0,0,1,.1-.22l-.08-.13v-.27a.24.24,0,0,1-.1-.18,1.28,1.28,0,0,0,.11-.32l-.1-.31a1.42,1.42,0,0,1,.16-.27.34.34,0,0,0-.28-.35l0,0v0a.45.45,0,0,1,0-.11,1.59,1.59,0,0,1-.13-.48.87.87,0,0,1,.14-.24c-.07,0-.12-.25-.17-.78a.37.37,0,0,0,0-.16v0a.63.63,0,0,0-.11-.26.49.49,0,0,1,.14-.36,1.83,1.83,0,0,0-.31-.51l-.12-.52a1,1,0,0,0,0-.22,1,1,0,0,1-.24-.58l-.06-.06-.34,0a1,1,0,0,1-.5-.45c-.06,0-.07-.07-.08-.16a1,1,0,0,1,.15-.21.52.52,0,0,1-.3-.39.64.64,0,0,1,.17-.39v-.06a.26.26,0,0,1-.11-.2v0a.26.26,0,0,1,.16-.13c.09,0,.22.09.39.31l.18.16c.08,0,.15-.06.21-.17v-.07q-.33,0-.39-.24l0-.15a.47.47,0,0,0-.18-.26,1.06,1.06,0,0,0-.05-.31.25.25,0,0,0,0-.08.5.5,0,0,1-.16-.35.68.68,0,0,0-.17-.26v-.28c0-.13-.11-.22-.34-.27,0-.05-.09-.09-.28-.14l0-.06v-.31c0-.06.19-.11.56-.14v0l-.29-.27v-.07c0-.06.08-.09.28-.1h.13c.14.13.21.18.24.18a1.33,1.33,0,0,1,.28,0,1,1,0,0,1,.22.05l.37-.28h.14c.09,0,.14.1.14.15h.07a1.29,1.29,0,0,1,.59-.4h.1a.53.53,0,0,1,.18.28.86.86,0,0,1,.41-.24c0-.19.05-.28.11-.28h0l.57.24h.1s.06-.09.07-.25.09-.05.09-.06l.18,0,.23,0a.33.33,0,0,0,.2.05l.1-.06.16,0A.47.47,0,0,1,290,284.43Zm-.89.72v0s.06,0,.06,0l.11,0h.14v-.07c0-.05,0-.06-.11-.07S289.15,285.1,289.15,285.15Zm-1.23,1.32h0l-.17,0a.35.35,0,0,1,.06.16c0,.08-.13.2-.36.37l-.22,0c0,.05-.07.08-.21.11h-.06s-.06,0-.07-.1l0-.13h0s-.07.12-.15.37-.24.22-.24.29a1.49,1.49,0,0,1,.53.4.67.67,0,0,1,.08.25v.06l-.05.07v.05l0,.07v.1l0,.09.08.28a.33.33,0,0,0-.05.2,1.52,1.52,0,0,1,.18.57v.18c0,.1.35.22.94.37h.15l.15,0c.07,0,.15.07.24.23h0a.41.41,0,0,1,.28-.17l.19.12.12,0s.08,0,.17.13h0a1.07,1.07,0,0,1,.3-.08,2.52,2.52,0,0,1,.78.26.93.93,0,0,1,.27,0l.17,0,.36,0a7.91,7.91,0,0,0,.8-.34.29.29,0,0,0,.26-.23c.11,0,.22-.11.35-.29.07,0,.12-.07.13-.18a.36.36,0,0,0,.23-.25.24.24,0,0,0,.12,0l0-.12a1.41,1.41,0,0,0,.17-.69l-.07-.11,0-.24a.82.82,0,0,0-.32-.52v-.06l0-.25h-.18a4.22,4.22,0,0,1-.54-.67v-.11a1.1,1.1,0,0,1-.27-.13h0c-.09.11-.16.17-.21.17a.33.33,0,0,1-.31-.19,1,1,0,0,1-.54-.13s-.11.06-.23.15h-.07a.75.75,0,0,1-.29-.11v0a1.19,1.19,0,0,1,.07.2c0,.1-.16.18-.47.23a.35.35,0,0,1-.26-.34l-.18-.06-.35.09H289c-.41-.11-.62-.22-.63-.37h0c-.14.23-.24.35-.28.35Zm3.74-.31v.15h0s.07,0,.09-.12l-.06,0Zm-4.81.33s0,0,0,0l.11,0h.27l.07-.09a.64.64,0,0,0-.25-.1h0C286.91,286.31,286.84,286.38,286.85,286.49Zm.63-.19h0c0,.05,0,.06.06.06h0v-.06Zm4.94.12v.08s0,0,0-.05v0Zm-5.74,1.69v.06s0,0,.08.07.06,0,.06-.05Zm1,3.54c.09.08.12.13.14.13h0s0,0,.07-.07v0a.17.17,0,0,0-.15-.07h0S287.72,291.63,287.72,291.65Zm.11,2.88v.07s0,.06.06.06h0v-.08s0-.06-.05-.05Zm.19.48s.05,0,.06,0v0c0,.05,0,.06-.06.06s0,0,0-.06v0A0,0,0,0,1,288,295Zm.37,2.5c.15,0,.24.07.24.17a.26.26,0,0,1-.27.17s-.08-.05-.17-.15v-.05A.23.23,0,0,1,288.39,297.51Z" transform="translate(-135.92 -76.66)"/><path d="M300,284.29a.23.23,0,0,1,.15.22v.11h.07l.18.05c.09-.14.16-.22.25-.22h0a.84.84,0,0,1,.4.19,1.18,1.18,0,0,0,.26.06l.16,0c.09,0,.17.11.23.33.58.15.89.33,1,.49,0,0,.12.09.24.28s.31.17.31.22v.1a.48.48,0,0,0-.07.2c0,.14.06.22.09.22h.07v0l0-.2c0-.07.09-.14.27-.19a.18.18,0,0,1,.12.16,1.65,1.65,0,0,0-.05.22c.15,0,.32.3.49.89.14.07.22.13.23.19v0c0,.12,0,.2,0,.21a1.18,1.18,0,0,0,.24.43c0,.12.09.22.24.32a.17.17,0,0,1,0,.1,1,1,0,0,1-.14.23s.09.09.26.14a.78.78,0,0,1,.12.18c0,.44-.08.67-.18.67h0a.59.59,0,0,1-.25-.13h-.05a.85.85,0,0,1-.38.22h0a1.5,1.5,0,0,1-.4-.14l-.19.06a.83.83,0,0,1-.72-.38h-.22l-.26,0-.33-.1-.15,0-.29-.14a2.31,2.31,0,0,0-.53.09,2.59,2.59,0,0,0-.79-.3L300,289a.93.93,0,0,0-.35.08l-.55-.1-.31,0-.1-.06c-.37,0-.59.16-.63.45,0,0-.06.06-.08.19v.27a.86.86,0,0,1-.3.45v.06a1.51,1.51,0,0,1,.1.35,1.7,1.7,0,0,0-.07.56,2.26,2.26,0,0,0-.08.43,4.69,4.69,0,0,1,.06.7l-.05.16a3.14,3.14,0,0,1,.59.55,2.83,2.83,0,0,0,.6.16l.26-.06.74.13s.16.07.5.08c0,0,.06.06.18.06a.47.47,0,0,1,.41-.26l.4,0,.43-.09a.26.26,0,0,0,.15.05l.75-.19h.12a.3.3,0,0,1,.19.09c.07-.27.19-.4.38-.4a2.29,2.29,0,0,1,.39.11s.1-.06.2-.15h0a1.17,1.17,0,0,0,.27.06h.07a1,1,0,0,0,.31-.2h.07c.19,0,.28.15.29.44,0,0,.06.05.07.14a.37.37,0,0,0,0,.15c0,.1,0,.17,0,.2s-.21.17-.21.26.06,0,.06.14a.62.62,0,0,1-.17.27h-.05a.54.54,0,0,1-.38-.26h-.08a.43.43,0,0,1-.38.19c.15.08.22.18.22.27v0a.21.21,0,0,1-.22.13v0c0,.05,0,.06.05.06h.38s.06-.08.1-.23a.42.42,0,0,1,.31-.13c.05,0,.12.13.21.38a.32.32,0,0,1,.15.13v0c0,.15-.11.23-.34.23,0,0,0,0-.07,0l-.24-.07h0a6,6,0,0,1-1.07.52h-.17c-.1,0-.19-.09-.25-.25v-.2h0l-.24.08h0c-.18-.19-.29-.29-.32-.29a.23.23,0,0,0-.14.15.83.83,0,0,0,.31.14c0,.06.1.09.33.12l.06.1c-.09.18-.18.25-.3.25h0a1.21,1.21,0,0,1-.31-.1l-.33.1c-.41,0-.62-.13-.62-.25h-.09c-.13,0-.19.09-.19.27l-.07.06h0c-.08,0-.17-.07-.28-.22h-.05l-.25.06-.09-.31-.09,0h0l-.13.15h0a.58.58,0,0,1-.24-.11.09.09,0,0,1-.07,0,1.15,1.15,0,0,0-.4-.1c0,.14-.13.23-.38.27h-.17a.43.43,0,0,0-.38-.22c-.17,0-.28-.1-.35-.29a.63.63,0,0,1-.09-.12v-.07l.22-.23a.06.06,0,0,0-.06-.06.19.19,0,0,0-.08,0c-.37-.1-.55-.24-.56-.43s-.19-.27-.19-.61L297,293v-.2a2.86,2.86,0,0,0-.29-.62.63.63,0,0,1-.09-.22,3,3,0,0,1,.35-1v0c-.05-.1-.08-.16-.11-.16a.67.67,0,0,0-.35.16h0s-.05,0-.08-.07a.6.6,0,0,1,.09-.38v-.09a.34.34,0,0,1-.08-.19c0-.21.15-.33.44-.36,0,0,0-.06.09-.06l.16,0v-.05H297c-.18-.12-.27-.22-.27-.33v0l.12-.16v-.09s0,0-.08-.07l-.13,0-.06-.09a2.48,2.48,0,0,1,.13-.5s0-.06,0-.11c0-.25.11-.38.23-.38a.63.63,0,0,1,.32-.26v0a.55.55,0,0,1-.09-.22c.19-.19.32-.3.38-.3a.16.16,0,0,0,.09,0c.27-.06.4-.18.4-.34l0-.25s0,0-.1-.1v-.08s.1-.1.29-.21l0-.06v-.07c0-.06.11-.11.31-.17l.07-.1v0l0-.06a.22.22,0,0,1-.13.06h-.06s0,0-.06-.09a.47.47,0,0,1,.43-.41c.07-.23.17-.35.32-.35a.72.72,0,0,1,.54-.19s0-.05.11-.05l.1,0a.69.69,0,0,0,0-.22C299.76,284.44,299.83,284.35,300,284.29Zm-1.88,1.62h0s0,0,0,.06V286s0,.05-.09.1h0s0,0,0-.09S298.09,285.92,298.13,285.91Zm3,.38a1.06,1.06,0,0,1-.3-.11c-.1.27-.23.4-.36.4h-.19c-.11-.13-.17-.19-.2-.19s-.12.08-.26.24h-.06a2.25,2.25,0,0,1,.11.56c0,.11-.13.24-.41.39l-.06.09a.17.17,0,0,1,.1.13s0,.12-.19.24c.12,0,.2.07.24.23a.16.16,0,0,0,.09,0h0l0,0v-.14s0-.06.07-.09h.06l.11.08a.28.28,0,0,1,.17-.12h.13a.6.6,0,0,0,.48.18l.12,0a2.37,2.37,0,0,1,.38.15h0a1.52,1.52,0,0,1,.26-.09,2.37,2.37,0,0,0,1.14.22l.34.09.15,0a.33.33,0,0,0,.21.08h0q.27,0,.27-.12a2.67,2.67,0,0,1-.24-.67.77.77,0,0,1-.32-.7,3.53,3.53,0,0,1-.6-.64,1,1,0,0,0-.43-.17l-.1-.2a1.09,1.09,0,0,0-.65.23Zm.66-.15h.05v.06s0,.06-.07.09l0-.06v0S301.78,286.14,301.81,286.14Zm-3,.43h0s.05,0,.05-.06h-.05S298.82,286.54,298.82,286.57Zm.08.44v0l.08,0,0-.06c0-.05,0-.06,0-.06h0S298.9,287,298.9,287Zm5.44,7.12s.05,0,.05,0v.06a.06.06,0,0,1-.05.06s-.06,0-.07-.09S304.28,294.14,304.34,294.13Zm-5.15.31c0,.09-.09.15-.25.2l-.12.15h0q.44,0,.42-.27v-.06l0,0Zm2.13.37v0h.09v0s0-.05,0-.05S301.32,294.78,301.32,294.81Zm.27.33a.18.18,0,0,0,.16.14c.06-.14.13-.2.19-.2v0a.68.68,0,0,0-.24-.13h0S301.61,295,301.59,295.14Z" transform="translate(-135.92 -76.66)"/><path d="M308.82,285.65h.26a3.41,3.41,0,0,1,1,.53,1.46,1.46,0,0,0,.66.15c.19.06.3.16.29.32s.09.14.25.14.18.12.36.33c.1,0,.2.14.31.46l.08.06h.18a.06.06,0,0,0,.06-.06l-.06-.21a.81.81,0,0,1,.64-.46v0l0-.06.19-.06a.43.43,0,0,1,.3.47.68.68,0,0,1-.18.31v.3a2.14,2.14,0,0,1-.26.91.32.32,0,0,0-.06.18v.18c0,.47-.09.72-.27.72,0,0,0,0,0,0a.46.46,0,0,1,.06.18c0,.11,0,.16,0,.18a1.1,1.1,0,0,1,.17.4v0c-.09.46-.15.69-.21.69a3.43,3.43,0,0,1,0,.49v.06a4.78,4.78,0,0,1-.21.9,1,1,0,0,1,.06.25v.15a.83.83,0,0,1-.07.37l0,.18v0a.48.48,0,0,1-.37.26v.19a.59.59,0,0,1,.21.45.77.77,0,0,1-.12.31.3.3,0,0,1,0,.17v.09a.85.85,0,0,1-.14.17s0,.19.08.53a.79.79,0,0,0-.15.31,1.09,1.09,0,0,1,.06.32c0,.09,0,.14-.06.14l.09.2a.41.41,0,0,1-.18.24.32.32,0,0,1,.06.16.72.72,0,0,1-.32.53,1.91,1.91,0,0,1-.24.46s-.07.09-.14.28a.27.27,0,0,1-.11,0c-.31-.11-.47-.21-.47-.34s0-.2,0-.46a1,1,0,0,1-.05-.3,1,1,0,0,1,.17-.31v0s-.07-.07-.23-.12v0c.07-.32.18-.48.3-.48v0a1.79,1.79,0,0,1-.12-.51.5.5,0,0,1,.09-.22.41.41,0,0,1-.06-.2,2.35,2.35,0,0,1,.12-.61l0-.15a1.2,1.2,0,0,1,.18-.71.86.86,0,0,1,.09-.26l0-.4a.54.54,0,0,0,.31-.44v-.06l-.12-.14v-.11a1,1,0,0,0,0-.33c0-.1.07-.16.09-.16a.42.42,0,0,1,0-.09.75.75,0,0,1,.06-.21c-.05-.09-.08-.13-.12-.14a1.16,1.16,0,0,0-.46.35.61.61,0,0,1-.24.06h-.19c-.12.21-.21.31-.3.31h-.17a1.53,1.53,0,0,1,.23.24v.09s-.12.09-.37.16c0,0,0,0,0,0h0l-.41-.09c-.15,0-.31.11-.49.35h0c-.13,0-.19,0-.19-.06l-.06,0h-.12a.89.89,0,0,1-.4-.24c-.16,0-.29-.1-.41-.31-.41-.2-.63-.38-.66-.55l0-.12a.55.55,0,0,1-.09-.3v-.07l.15-.35a.32.32,0,0,1,0-.09h-.15c-.19,0-.31-.27-.33-.8a.63.63,0,0,1,.21-.36s-.05-.22-.12-.52a5.69,5.69,0,0,1,.12-.75c0-.06,0-.24,0-.55,0,0,.08-.1.25-.23a.81.81,0,0,1-.12-.28c0-.11.08-.19.21-.27a1,1,0,0,1,.21-.46c0-.16.16-.26.49-.3,0-.05.07-.12.21-.24v-.06s0-.09-.06-.23v-.05c0-.07.15-.12.43-.14C308.33,285.81,308.49,285.72,308.82,285.65ZM307.33,290a1,1,0,0,1,.13.29v.4l.51.18a5.75,5.75,0,0,1,.61.37c0,.14.25.24.73.36a4.32,4.32,0,0,1,.88-.29,2.62,2.62,0,0,1,.52-.45,1,1,0,0,1,.18-.3A2.63,2.63,0,0,1,311,290a5.56,5.56,0,0,1-.35-1.36,3.83,3.83,0,0,0-.39-1c0-.15-.15-.27-.46-.35l-.27.06a1.08,1.08,0,0,0-.34-.18h0c-.13,0-.37.15-.72.46-.05,0-.11.11-.18.35-.15,0-.27.19-.37.46-.31,0-.46.36-.47,1.12A1.27,1.27,0,0,1,307.33,290Zm-.14-2v0l.15,0h.14V288a.18.18,0,0,0-.17-.07h0S307.22,287.94,307.19,288Zm.07,4v.06h.06V292Z" transform="translate(-135.92 -76.66)"/><path d="M317.32,284.4h.06v.06h-.06Zm1,.32h.21a.66.66,0,0,1,.3.53c0,.06-.1.14-.29.29v0c.2.21.3.37.3.49a.83.83,0,0,1-.41.6h-.06c-.1-.17-.17-.24-.2-.24a1.74,1.74,0,0,0-.26.42c-.26,0-.38.08-.38.14v.09l.28.06a.32.32,0,0,1,.15,0l.09.12v0s-.12.1-.36.17c0,.08-.15.17-.47.24l-.2,0a1,1,0,0,0-.07.3s.1.09.2.28l.15,0,0,.06s-.06.05-.18.05a3.09,3.09,0,0,0,.08.49c0,.12-.14.26-.38.47a.74.74,0,0,1-.16.39v0l0,.06,0,.16V290a.43.43,0,0,1,.08.27.37.37,0,0,1-.15.26l.08.17c0,.15-.17.3-.48.45l-.06.53c.24.05.37.3.36.74,0,.18.17.3.54.37,0,0,.14.09.45.16l.06,0h0a1.91,1.91,0,0,1,.75.15c.38-.13.76-.24,1.19-.35a1.92,1.92,0,0,1,.38-.27.49.49,0,0,0,.18,0h.05a.76.76,0,0,1,.5-.15c.31-.2.64-.42,1-.68.15,0,.22,0,.22-.08v-.33a.42.42,0,0,1-.13-.31v-.09a.88.88,0,0,1,.19-.17,2,2,0,0,1-.05-.25,1,1,0,0,1,.06-.24,1,1,0,0,1-.08-.31.65.65,0,0,1,.39-.17v0a.6.6,0,0,0-.17-.34c.07,0,.12-.13.15-.41a1.42,1.42,0,0,0,.32-.22l-.37-.21a1.64,1.64,0,0,0-.28-.56.77.77,0,0,1,.37-.68v-.06c0-.09-.1-.15-.32-.19l0-.06h0c0-.16,0-.24.12-.27h.06l.09.06h0l.44-.51h.15v-.06h-.18l-.39-.36a.45.45,0,0,1,0-.11.05.05,0,0,0,.06-.06l.37.07a.25.25,0,0,1,.18-.05.4.4,0,0,1,.39.31c.37,0,.55.12.54.34l-.06.19c.06,0,.1.36.1,1a.82.82,0,0,1-.14.19v0a.61.61,0,0,1,.15.46v.09c0,.17-.14.3-.41.38v0a.49.49,0,0,1,.48.23v0a3.58,3.58,0,0,0,0,.41c-.09.36-.16.55-.22.55l-.11,0s0-.07-.11-.12v.09l.24.14c.18.15.26.23.26.27-.16.16-.24.28-.24.34s0,0,0,.09.2.25.34.76c.09,0,.13.07.14.12v.06l-.06.2a1,1,0,0,1,.33.63.44.44,0,0,0,.22.42v.12c0,.07-.08.17-.21.3v0c0,.06.11.11.36.16l0,.12,0,.1a3.15,3.15,0,0,1,.46.76v0c-.06.33-.15.49-.28.49s-.06.05-.18.05a1.05,1.05,0,0,1,.05.24v0s0,.06-.09.08h-.07a.24.24,0,0,1-.12,0q-.19,0-.24.42a.26.26,0,0,1-.18.06c-.09,0-.16-.11-.22-.3a1.71,1.71,0,0,1-.26-.4.25.25,0,0,1-.17-.24c0-.42-.09-.63-.32-.63s-.18-.18-.26-.45a3.2,3.2,0,0,1-.18-.61l0-.18s0,0-.06,0a3.79,3.79,0,0,0-.46.24c-.13,0-.22-.07-.26-.07h-.4l-.21,0v0a.33.33,0,0,1,.08.21c0,.18-.08.25-.24.24h-.06l-.09,0h-.07l-.35,0-.15,0a.35.35,0,0,1,.11.21c-.07.1-.3.14-.67.13l-.19,0c-.06.12-.12.17-.18.17a1,1,0,0,1-.4-.09s0,.05-.12.11h0a.32.32,0,0,1-.2-.09h0a.5.5,0,0,1-.34.08l-.3-.1h-.08c-.66.08-1,.16-1,.26l-.17.09a.24.24,0,0,1-.16-.15V294c-.22,0-.45-.17-.71-.5a.18.18,0,0,1,.19-.14v0c0-.05,0-.06-.07-.06a.38.38,0,0,1-.18.05.45.45,0,0,0-.38-.27l-.16,0c-.05,0-.06,0-.06-.07v0l.2-.13v0h-.19a.73.73,0,0,1-.26-.55,3.19,3.19,0,0,0,.13-.35v0s-.08-.06-.24-.1c0,0-.05-.1-.16-.16v-.09a1.6,1.6,0,0,1,.35-.38v0a2.32,2.32,0,0,0-.51-.38l0-.2.09-.16a.86.86,0,0,1,0-.21l.06-.12a1.29,1.29,0,0,1,0-.24,1.11,1.11,0,0,1,.47-.64l.18,0,0,0v-.06a.43.43,0,0,1-.08-.21c0-.31.08-.46.19-.45a.69.69,0,0,1,.25.06v0c0-.06-.07-.15-.22-.27v0a1.66,1.66,0,0,0,.18-.6q0-.32.42-.48l0-.06a1.5,1.5,0,0,0-.08-.34c0-.3.22-.6.65-1,0-.07.13-.19.38-.33,0-.18.14-.35.4-.54l.13,0a1.4,1.4,0,0,0,.26.11A1.52,1.52,0,0,0,318.35,284.72Zm3.62.68h0a.05.05,0,0,1,.06.06v.06a.06.06,0,0,1-.06.06h0s-.06,0-.07-.09S321.91,285.43,322,285.4Zm-5,8.35,0,.12.06,0h0c.05,0,.06,0,.06-.06v0s0-.05-.06-.06Zm7.59,1.92h.06v0s-.05.07-.12.12l0-.06S324.51,295.7,324.57,295.67Z" transform="translate(-135.92 -76.66)"/><path d="M330.64,284.7a.22.22,0,0,1,.13.23v.1h.07a.62.62,0,0,0,.18.06c.09-.14.17-.21.26-.21h0a.89.89,0,0,1,.4.21.83.83,0,0,0,.26.07l.16,0q.14,0,.21.33c.57.18.87.37,1,.54,0,0,.11.09.22.29s.31.19.3.23v.11a.34.34,0,0,0-.08.19c0,.14.05.22.08.22h.07v0l0-.19c0-.07.1-.14.28-.18a.18.18,0,0,1,.11.17,2,2,0,0,0-.06.22c.15,0,.3.3.44.9.15.08.22.14.23.2v.06c0,.12-.05.19-.05.2a1.08,1.08,0,0,0,.22.44c0,.12.08.23.22.34a.17.17,0,0,1,0,.1s-.07.1-.16.22.09.09.26.15a.89.89,0,0,1,.11.19c0,.44-.11.66-.21.65h0a.53.53,0,0,1-.25-.14h0a.84.84,0,0,1-.4.2h0a1.54,1.54,0,0,1-.39-.16l-.19.05a.81.81,0,0,1-.7-.41h-.22l-.27,0-.32-.11-.15,0-.29-.16a2.83,2.83,0,0,0-.53.07,2.35,2.35,0,0,0-.77-.34l-.35-.09a1.13,1.13,0,0,0-.36.06l-.54-.12-.32,0-.1-.07c-.37,0-.59.13-.65.42,0,0-.06.06-.08.19v.27a.83.83,0,0,1-.31.43v.06a1.72,1.72,0,0,1,.09.36,1.52,1.52,0,0,0-.1.55,2.05,2.05,0,0,0-.1.43,5,5,0,0,1,0,.7l-.07.16a2.78,2.78,0,0,1,.57.58,4.12,4.12,0,0,0,.59.19,1.36,1.36,0,0,1,.26-.05l.74.16s.16.08.5.11c0,0,.05.06.17.06a.45.45,0,0,1,.43-.23l.39,0,.43-.07a.22.22,0,0,0,.15.06l.76-.16H333a.39.39,0,0,1,.19.1c.08-.26.2-.39.4-.38a2.67,2.67,0,0,1,.38.13.86.86,0,0,0,.21-.14h0l.27.07h.07a1,1,0,0,0,.32-.18h.07q.29,0,.27.45s.05.05.06.14a.6.6,0,0,0-.05.14.84.84,0,0,1,0,.21c-.14.08-.21.15-.22.24s.06.05.06.15a.75.75,0,0,1-.19.26h0a.56.56,0,0,1-.38-.28h-.07a.45.45,0,0,1-.39.17.36.36,0,0,1,.21.28v0a.24.24,0,0,1-.23.12v0c0,.05,0,.06,0,.06l.39,0s.06-.07.11-.22a.35.35,0,0,1,.31-.12c.05,0,.12.14.2.39a.38.38,0,0,1,.14.14v0c0,.15-.13.22-.35.21,0,0,0,0-.08,0l-.23-.08h0a5.41,5.41,0,0,1-1.1.47h-.16c-.11,0-.19-.1-.25-.26l0-.19h0l-.24.07h0c-.17-.2-.27-.31-.3-.31a.23.23,0,0,0-.15.14.77.77,0,0,0,.3.16c0,.06.1.09.32.13l.06.11c-.1.17-.19.24-.31.24h0l-.31-.12-.33.08c-.41-.06-.61-.16-.61-.28h-.09c-.13,0-.19.08-.2.26l-.08.05h0c-.07,0-.15-.08-.27-.23h0a1,1,0,0,0-.25.05l-.08-.32-.09,0h0l-.14.14h0a.62.62,0,0,1-.23-.12.12.12,0,0,1-.07,0,1.56,1.56,0,0,0-.4-.12c0,.15-.14.23-.39.25h-.17a.45.45,0,0,0-.37-.24c-.16,0-.28-.11-.33-.31,0,0,0,0-.08-.12V295l.23-.21c0-.05,0-.07-.06-.07l-.09,0c-.36-.12-.53-.27-.53-.46s-.18-.28-.17-.62l0-.49,0-.2a2.94,2.94,0,0,0-.26-.63.69.69,0,0,1-.08-.23,3.1,3.1,0,0,1,.39-.93v0c0-.1-.07-.17-.1-.17a.68.68,0,0,0-.36.15h-.05s0,0-.07-.08a.64.64,0,0,1,.11-.38v-.08a.44.44,0,0,1-.07-.2c0-.21.16-.32.46-.34,0,0,0-.06.09,0l.16,0V290h-.13c-.17-.13-.26-.23-.25-.34v0l.12-.15v-.09s0,0-.07-.08l-.14,0-.05-.1a2.47,2.47,0,0,1,.15-.49s0-.06,0-.11c.06-.25.14-.38.25-.37a.63.63,0,0,1,.34-.24v0a.55.55,0,0,1-.08-.23c.2-.18.33-.28.39-.28a.18.18,0,0,0,.09,0c.27-.05.41-.17.41-.33l0-.25s-.06,0-.1-.11v-.07s.1-.1.3-.19l0-.06v-.08c0-.06.11-.1.32-.15l.08-.1v0l0-.06a.18.18,0,0,1-.13.05h-.06s0,0-.06-.09a.49.49,0,0,1,.45-.4c.08-.21.19-.33.33-.32a.74.74,0,0,1,.56-.17s0-.05.1,0l.11,0a.69.69,0,0,0,0-.22C330.38,284.84,330.46,284.76,330.64,284.7Zm-2,1.53h0s0,0,0,.06v.06s0,.06-.09.1h0s-.05,0,0-.09S328.64,286.24,328.68,286.23Zm3,.53a1.65,1.65,0,0,1-.29-.13c-.11.26-.25.39-.38.38h-.2c-.09-.13-.15-.19-.18-.2s-.12.07-.28.23h-.05a2.86,2.86,0,0,1,.08.56c0,.11-.14.24-.43.37l-.06.09c.07.05.1.09.09.14a.58.58,0,0,1-.2.22c.12,0,.19.09.23.25l.09,0h0l0,0v-.15a.13.13,0,0,1,.08-.09h.06l.1.1c.06-.07.14-.12.18-.11h.14a.57.57,0,0,0,.46.2l.12,0a2,2,0,0,1,.38.16h0a1,1,0,0,1,.27-.07,2.43,2.43,0,0,0,1.13.27l.34.11.15,0a.45.45,0,0,0,.2.1h0c.18,0,.27-.06.28-.11a2.8,2.8,0,0,1-.22-.69.77.77,0,0,1-.28-.7A3.29,3.29,0,0,1,333,287a1.36,1.36,0,0,0-.43-.19l-.09-.2a1.12,1.12,0,0,0-.66.2Zm.67-.13h0v.05s0,.06-.07.09l0-.06v0S332.32,286.63,332.35,286.63Zm-3,.29h0s.05,0,.05-.06h-.05S329.34,286.89,329.34,286.92Zm.06.44v0l.09,0,0-.06c0-.05,0-.06,0-.06h0S329.4,287.33,329.4,287.36Zm5.1,7.37s0,0,0,0v.06a.06.06,0,0,1-.05.06.12.12,0,0,1-.07-.1S334.44,294.75,334.5,294.73Zm-5.17.07c0,.09-.09.15-.26.18l-.12.15h0c.3,0,.43-.07.44-.25v-.06l0,0Zm2.12.47v0h.09v0s0,0,0,0S331.45,295.24,331.45,295.27Zm.25.35a.17.17,0,0,0,.16.14c.06-.13.14-.19.19-.19v0a1,1,0,0,0-.24-.14h0S331.73,295.47,331.7,295.62Z" transform="translate(-135.92 -76.66)"/><path d="M337.18,288.27l.66.09a.62.62,0,0,1,.19,0c.1,0,.15.09.14.18l-.1.14v.06s.13.13.4.3a1.6,1.6,0,0,0,.28.57h0a.63.63,0,0,1,.41-.19h.09c.21.17.32.25.37.25a1.44,1.44,0,0,1,.17-.22h.06l.09.06a.76.76,0,0,0,.47-.25l.32,0h.15l.24.24h0a.42.42,0,0,0,.28-.18h.06a2.13,2.13,0,0,1,.52.4.64.64,0,0,1,.17,0h.09c.05,0,.08.07.08.18s-.07.11-.1.11l-.12,0c-.07,0-.1.06-.11.17l.06,0h0a.28.28,0,0,1,.23-.09h0c.2,0,.31.13.3.38a2.85,2.85,0,0,0,.52.52l0,.06v0c0,.13-.1.2-.28.22,0,.09.06.14.11.16h0a.44.44,0,0,1,.26-.14.65.65,0,0,1,.39.3v.09a1,1,0,0,1-.17.32c0,.07.13.2.36.36v.12l-.14.14v.16a4.39,4.39,0,0,0,.27.86v.18s0,0-.1.08h-.19v.1a.75.75,0,0,1,.35.29,1.43,1.43,0,0,1-.08.39c0,.18,0,.31,0,.45v.06c0,.07,0,.14-.16.21l.08.27a.38.38,0,0,0-.07.22s.06,0,.05,0l.07,0h.11s.06.05.12.13l0,.2a.53.53,0,0,1-.43.47h-.35c-.07,0-.15-.08-.28-.25a1.87,1.87,0,0,1-.58-.43.22.22,0,0,1-.19-.19c0-.12.07-.16.09-.16a.88.88,0,0,1-.2-.39v0a4.28,4.28,0,0,0,.18-.69s.06,0,.11-.1,0-.16,0-.18a2.29,2.29,0,0,1,.17-.31c-.06,0-.12-.11-.15-.32a1.15,1.15,0,0,1,.09-.29,1.19,1.19,0,0,1-.14-.5s-.05,0-.08-.09v0c0-.08.07-.16.19-.27v-.06s-.16-.11-.37-.35L342,292a.73.73,0,0,0-.21,0,3,3,0,0,1-.56-.2c0,.05-.08.09-.25.12l-.19,0-.58.16-.29-.1h-.18a1.53,1.53,0,0,1,.1.39v.16a.87.87,0,0,1,.31.25v.06a.59.59,0,0,1-.16.26.41.41,0,0,1,.19.26c-.05.13-.17.2-.37.19a.39.39,0,0,1-.24-.19h0a1.65,1.65,0,0,1-.07.26.91.91,0,0,1,.12.26,3,3,0,0,1-.18.86,2.88,2.88,0,0,1,.17.5.28.28,0,0,1-.23.07v.29c0,.16-.14.29-.4.39s-.35-.15-.44-.41a.41.41,0,0,0-.19-.32c0-.12-.08-.2-.26-.28a.57.57,0,0,0-.16-.41l0-.17a4.14,4.14,0,0,0-.15-1.14V293a.29.29,0,0,0,.1-.2.54.54,0,0,1-.13-.27v-.09l.12-.13v0a.77.77,0,0,1-.28-.53l.07-.2a.91.91,0,0,1-.18-.56v-.12s-.09-.09-.29-.16v-.06a.6.6,0,0,1,.33-.41l-.05-.12-.15,0c-.1,0-.16-.07-.15-.22a.62.62,0,0,1,.14-.21,1.4,1.4,0,0,0-.1-.5v-.12l.07-.2c-.15,0-.23-.16-.27-.47C337,288.39,337.06,288.34,337.18,288.27Zm2.81,1.39,0,.06v.06a.06.06,0,0,0,.06.06h.12l.06,0A.2.2,0,0,0,340,289.66Zm-.65.21v.05c.06,0,.09,0,.09,0s.1,0,.15-.14h-.17C339.36,289.81,339.34,289.84,339.34,289.87Zm-1.73.48v.06h.09a.05.05,0,0,0,.06-.05Zm2.16.12v0s0,.06.05.06v-.09Zm-.4,1.19a2.23,2.23,0,0,1-.08.39h.06a1.09,1.09,0,0,1,.28-.11v0S339.55,291.79,339.37,291.66Zm-.09,1.12,0,.14V293s.08.1.25.21.35-.07.35-.12a.92.92,0,0,0-.39-.16s0-.08-.11-.13Zm3.79,2.72v.06h0v-.06Z" transform="translate(-135.92 -76.66)"/><path d="M351.13,286.43h.15c.09.17.16.25.18.25.3.06.46.12.46.18l0,.2h0a3.49,3.49,0,0,1,.61,0h.06a.6.6,0,0,1,.2.36h.09c0-.07.06-.11.18-.1s.2.1.32.29c.35.13.5.27.49.43a2,2,0,0,1,.92.33.44.44,0,0,0,.42.36,5.15,5.15,0,0,0,.49.43,3.32,3.32,0,0,0,.53.65c0,.06.09.18.29.37a.75.75,0,0,0,.18.45,1.54,1.54,0,0,1,.31,1,2.84,2.84,0,0,1,.12.81.33.33,0,0,0,.09.21v0a1.4,1.4,0,0,1-.29.5v0s.14.11.41.2c0,0,0,.21,0,.56v0s0,.05-.09.08a.87.87,0,0,1-.51-.16l0,.06v0c.13.1.2.16.2.19v0c0,.12-.11.2-.29.2v0a.49.49,0,0,1,.07.24v0a1.3,1.3,0,0,0-.07.22v0h.11a.21.21,0,0,1,.22.25c0,.12-.16.24-.44.37,0,.25-.14.38-.36.36h-.12l-.29-.11c-.06.21-.13.3-.21.3l-.21,0c-.09.19-.15.29-.2.29h-.1a.68.68,0,0,1-.31-.17c-.1,0-.14.06-.16.11a.6.6,0,0,0,0,.12c0,.14-.28.24-.82.28a.43.43,0,0,1-.4.24c0,.06,0,.1-.13.12l-.16,0c-.13,0-.21,0-.21.09a.32.32,0,0,1,.05.15l-.1.05h0a1.45,1.45,0,0,1-.27-.11,1.21,1.21,0,0,1-.48.08c-.13-.08-.18-.13-.18-.16v0s0,0,0,0-.06-.14-.17-.15h0a.18.18,0,0,0-.13.09c.12,0,.17.06.17.11v0s0,.07-.13.11-.17-.05-.17-.13h-.06l-.14.11-.32,0a.47.47,0,0,1-.24.07l-.34-.14a.24.24,0,0,1-.18,0h-.06a4.05,4.05,0,0,1-.44-.24v0c0,.07-.11.11-.26.1a.69.69,0,0,0-.6-.47,1,1,0,0,1-.31.08h0c-.46-.11-.69-.21-.68-.27s0-.06-.06-.07h0c-.09.08-.18.14-.23.13a3.46,3.46,0,0,0-.52-.39c0-.09-.1-.26-.32-.51a1.3,1.3,0,0,0-.26-.74l0-.07a.29.29,0,0,0,0-.1,3.15,3.15,0,0,1-.53-1.43,4.33,4.33,0,0,0-.08-.55v-.12s.05-.07.12-.11l.16,0c0-.1-.08-.24-.28-.39v0c.09-.24.16-.37.23-.37v0a2,2,0,0,1-.05-.22v-.12a1.3,1.3,0,0,1,.39-.67v0a.31.31,0,0,1-.07-.21,1.44,1.44,0,0,1,.55-.63v-.07c0-.05,0-.17,0-.33s.15-.17.42-.22a.85.85,0,0,0,.16-.2,1.26,1.26,0,0,1,0-.27s.07-.08.17-.15a.14.14,0,0,0,0-.09c.09-.66.26-1,.49-.95h.06a.35.35,0,0,1,.21.13h.06s.08,0,.13-.11-.08-.2-.26-.24l-.08-.13v-.06c0-.17.14-.25.39-.23.09-.1.17-.16.24-.15a1.09,1.09,0,0,1,.42.19c0-.16.14-.26.39-.28l.2,0a1.17,1.17,0,0,0,.33-.36h0a4.25,4.25,0,0,1,.59.16A.74.74,0,0,1,351.13,286.43Zm-2.1,1.48v0h0a.63.63,0,0,1,.45-.2v-.15s-.08,0-.08,0S349.22,287.67,349,287.91Zm2.53.64a.57.57,0,0,1-.27-.17,5.53,5.53,0,0,0-.67,0l-.06,0a2.09,2.09,0,0,1-.77.3c0,.09-.31.15-.86.22a4.69,4.69,0,0,0-.91,1.18c-.11,0-.23.25-.38.76,0,0-.12.11-.25.32l0,.18a2.4,2.4,0,0,0-.23.68s-.06,0-.09.08l.05.1-.11.27a2.1,2.1,0,0,1,.1.33,1.75,1.75,0,0,1-.18.39,2.46,2.46,0,0,0,.2.59,1,1,0,0,0,0,.24,3,3,0,0,1,.35.72.43.43,0,0,1,.18.44,4.28,4.28,0,0,1,.61.38,1.2,1.2,0,0,1,.62.25l.06,0h.22l.36-.12.66.11a.21.21,0,0,1,.2-.11h.06a.64.64,0,0,1,.24.37,1,1,0,0,1,.76-.27c.1.05.14.08.14.1a1.64,1.64,0,0,1,.55,0v-.06c-.07,0-.1-.05-.09-.17v0s.05-.07.14-.11a.53.53,0,0,1,.23.1c0-.07.13-.13.35-.18l.24,0s.11-.1.2-.3a.27.27,0,0,1,.23-.1c.07,0,.15.11.27.27a1.57,1.57,0,0,0,.31,0c0-.1.13-.15.37-.14,0-.16,0-.23-.07-.24h-.09a.5.5,0,0,1-.22.1l0-.09v-.06c0-.05.09-.08.29-.16l.14.1h0a.22.22,0,0,1,.24-.2,1.33,1.33,0,0,0,.32.12s.06,0,.06,0a.63.63,0,0,1,0-.23,1.43,1.43,0,0,1,.37-.43V294a1.51,1.51,0,0,0,0-.24v-.06c0-.14.19-.28.5-.39l0-.06a.33.33,0,0,1-.31-.2V293c0-.1.12-.21.32-.32v0a1.18,1.18,0,0,0-.1-.19v-.15s0-.05.15-.12a3,3,0,0,1-.27-.72l-.06,0h0l-.18,0c-.06,0-.2-.15-.37-.44-.12,0-.25-.16-.4-.43a6.09,6.09,0,0,1-1-.8c0-.06-.16-.13-.48-.22,0-.09-.19-.19-.61-.31-.19,0-.33-.16-.4-.43s.05-.28.05-.32l-.11-.13Zm4.46,6.53a1.88,1.88,0,0,0-.12.42l.06,0h.12s.09-.12.17-.36A.58.58,0,0,0,356,295.08Zm-2,.87.23,0v-.06h-.18S354,295.92,354,296Zm.09.88,0,.06a.06.06,0,0,1-.06.06l0-.06A.06.06,0,0,1,354.11,296.83Zm-5.83,0h0c.15,0,.22.05.23.11s-.08.08-.18.07a.17.17,0,0,1-.16-.13Zm.55.16.26,0s.05,0,.05.06,0,.06-.09.08h0l-.19-.07Z" transform="translate(-135.92 -76.66)"/><path d="M361.85,286.71a2.75,2.75,0,0,1,.58.05l.3-.07a2.61,2.61,0,0,1,1.41.18,2.07,2.07,0,0,1,1,.53,1.42,1.42,0,0,1,.89,1l0,.24c0,.12,0,.2-.07.22s-.25-.07-.44-.26h0l-.14.05a3,3,0,0,1-1-.66,5.28,5.28,0,0,0-1.22-.25l-.26.06a1.33,1.33,0,0,1-.27,0,1.22,1.22,0,0,0-.68.46.59.59,0,0,0-.25,0c0,.05-.08.12-.28.19,0,.09-.12.19-.42.35a1.73,1.73,0,0,1-.38.63l-.15.67,0,.06c.46.27.7.45.72.57s.17,0,.16-.09h.16l.32-.12a9.28,9.28,0,0,0,1.7,0,2.38,2.38,0,0,0,1.32.39.85.85,0,0,1,.32.6.37.37,0,0,1,.25.32.7.7,0,0,0-.05.29v0l.15.34a1.25,1.25,0,0,0,0,.21c.2.05.32.15.34.31v0c0,.11-.05.24-.18.39v.1h.15c0-.09,0-.14.08-.15s.07,0,.08.09v.11a1,1,0,0,0,.07.23c0,.1-.15.27-.42.5v0a.42.42,0,0,1,.11.19,1.51,1.51,0,0,1-.19.82,1.63,1.63,0,0,1,.07.31.8.8,0,0,1-.68.46.2.2,0,0,0-.08.15.74.74,0,0,1,.14.26l0,.12c0,.08-.12.17-.4.26a.9.9,0,0,0-.23.58.29.29,0,0,1-.12.09l-.06,0c-.22,0-.31.18-.28.46l-.11.13h-.06l-.28-.22c-.23.25-.41.4-.54.41l-.15,0a.53.53,0,0,1-.28-.07q-.15,0-.15.09h-.24l-.14,0a4.29,4.29,0,0,1-1.07-.32l-.16,0a.86.86,0,0,1-.27,0,.56.56,0,0,1-.26.14c-.14,0-.23-.07-.31-.3v0a.67.67,0,0,1,0-.24c-.11,0-.3-.1-.59-.36,0,0-.1-.13-.16-.39-.06,0-.09-.05-.06-.23s0-.26.06-.26.21-.1.37-.26l.26-.05a4,4,0,0,1,.5.07l.22,0a2.62,2.62,0,0,0,1.48.6h.18a2.7,2.7,0,0,0,1.58-1.3c.13,0,.27-.17.37-.45.1,0,.23-.18.41-.46l.15-.06v-.06l-.1-.23a3.52,3.52,0,0,0,.05-.87l0-.11c-.11-.44-.35-.64-.69-.58-.25-.2-.42-.3-.53-.28l-.26.08a9,9,0,0,1-1-.35l-.14,0-.36,0a.26.26,0,0,1-.11.17l-.23,0c-.24,0-.52-.15-.84-.54-.23,0-.51-.18-.87-.62l0-.2.07-.05a.36.36,0,0,0,.2.05l.05,0,0-.07c0-.06-.15-.1-.46-.15a1,1,0,0,1-.22-.36l0-.1a.5.5,0,0,0,.13-.33l0-.08a.46.46,0,0,1-.2-.25c0-.12.06-.18.11-.2l.33-.05,0-.13c-.12,0-.25-.17-.35-.57v-.07c0-.05.08-.11.24-.2l-.06-.19c0-.22.26-.39.87-.48l.22-.39c0-.15.11-.27.39-.38,0-.1.08-.15.2-.17l.34,0A1.69,1.69,0,0,1,361.85,286.71Zm-.06,10.36v0a.05.05,0,0,0,.07,0,0,0,0,0,0,0-.06v0Z" transform="translate(-135.92 -76.66)"/><path class="cls-8" d="M228.81,272c18.1-1.84,27.67-14.44,25.65-34.34-1.15-11.28-5.18-15.39-13.78-14.52l-11.4,1.16c-5.7.57-8.93,4.4-8.37,9.88.47,4.69,3.26,6.56,8.25,7.86,1.51.41,3,.93,3.27,3.28.3,3-1.85,5.15-5.32,5.51-6.15.62-10.16-5.52-11.44-18.15-1.25-12.41,1.08-19.42,6.89-20,6-.61,6.73,6.21,15,5.37,6.49-.66,10.19-5.33,9.54-11.7-1-10.17-12-16.28-26.57-14.81-20.34,2.07-31.92,19.28-29.45,43.64S208.47,274.1,228.81,272Z" transform="translate(-135.92 -76.66)"/><path class="cls-9" d="M291.63,268.31c17.86-.36,29.18-12.72,28.81-31.25L319.69,200c-.16-8-4.74-12.6-12.38-12.44s-12,5-11.88,12.93l.76,37.74c.08,3.93-1.89,6.56-5,6.62s-5.33-2.48-5.41-6.41L285,200.69c-.16-8-4.75-12.6-12.39-12.45s-12,5-11.87,12.94l.74,37.07C261.85,256.78,273.77,268.67,291.63,268.31Z" transform="translate(-135.92 -76.66)"/><path class="cls-10" d="M340,268.36c7.63.31,12.31-4.22,12.64-12.19l2.22-54.55c.32-8-4-12.87-11.61-13.18s-12.32,4.22-12.64,12.19l-2.22,54.56C328.11,263.15,332.41,268.05,340,268.36Z" transform="translate(-135.92 -76.66)"/><path class="cls-11" d="M368.71,269.8c6.93.7,9.48-2.2,12.49-8.44,1.14-2.37,1.9-3.2,3.8-3l9.39.95c1.9.19,2.48,1.15,3.13,3.7,1.53,6,3.16,10,10.64,10.79s12.35-2.58,13-9.06a23.38,23.38,0,0,0-.54-6.95l-9.57-51.44c-1.53-8.29-6.78-13.34-14.6-14.13s-14,3.1-17.14,10.91l-19.6,48.48c-1.5,3.58-1.87,5-2,6.46C357,264.78,361.11,269,368.71,269.8Zm24.94-27.62-4.59-.46c-1.23-.13-1.71-1-1.36-2.17l6.08-21,1.62,21.84C395.63,241.59,395,242.32,393.65,242.18Z" transform="translate(-135.92 -76.66)"/></svg>