<svg xmlns="http://www.w3.org/2000/svg" viewBox="0 0 142.58 77.91"><title>Asset 1</title><g id="Layer_2" data-name="Layer 2"><g id="Layer_1-2" data-name="Layer 1"><path d="M119.58,51.14c-3.87.14-9-.47-14.07-.79a13.9,13.9,0,0,1-1.42-.21,1.78,1.78,0,0,1-1.35-1.73c.17-2.35,1.73-4.11,3.86-4.12s4.47.14,6.71.31a158.36,158.36,0,0,0,25.86,0c3-.27,3.76.61,3.28,3.57a36.36,36.36,0,0,1-3.76,11.33c-2.94,5.49-6.06,10.89-9.15,16.31a6.64,6.64,0,0,1-1.61,1.74,1.51,1.51,0,0,1-1.78.12,1.61,1.61,0,0,1-.91-1.56,6.18,6.18,0,0,1,.61-2.28c1.05-2,2.25-3.87,3.33-5.83q3.33-6.11,6.57-12.25c.1-.2-.07-.55-.11-.83a2.32,2.32,0,0,0-.83.28,67.67,67.67,0,0,1-15.07,10.15,70.37,70.37,0,0,1-21.87,6.81c-3.63.54-7.26,1.17-10.91,1.6a60.93,60.93,0,0,1-19.57-.57,36.09,36.09,0,0,1-11.13-4.28A23,23,0,0,1,45,53c-.12-.63-.16-1.28-.34-1.89A2,2,0,0,0,43,49.59c-2.05-.31-4.12-.52-6.17-.84C26.11,47,17.83,41.4,11.31,33A53.9,53.9,0,0,1,.7,9.14C.42,7.57.14,6,0,4.41A4.42,4.42,0,0,1,2.07.33a1.72,1.72,0,0,1,2.68.9c.4,2,.68,4.11,1.13,6.13a50.67,50.67,0,0,0,12.41,24A42.5,42.5,0,0,0,26,37.8c5.22,3.42,11.05,4.9,17.19,5.41A1.56,1.56,0,0,0,44.94,42c.33-1.07.61-2.15,1-3.22,3.72-11.62,11.76-18.28,23.61-20.6a17.67,17.67,0,0,1,8.55.08,18,18,0,0,1,4,1.59,8.73,8.73,0,0,1,4.25,9.42,17.94,17.94,0,0,1-5.18,9.55,26.84,26.84,0,0,1-6.61,4.72,53,53,0,0,1-19.61,5.92c-1.26.12-2.52.36-3.77.58a1.2,1.2,0,0,0-.76,1.52c.1.3.19.61.3.91a21,21,0,0,0,11.15,12c5,2.4,10.33,3.27,15.78,3.67a71.87,71.87,0,0,0,15.29-1c3.63-.51,7.25-1.18,10.88-1.73A28,28,0,0,0,112,62.9q7.51-3.72,14.89-7.72a34.18,34.18,0,0,0,4.21-3.12c.08-.06.08-.29,0-.43s-.14-.31-.23-.32a17.39,17.39,0,0,0-1.9-.16ZM53.79,43.38a35,35,0,0,0,9-1.27,62.09,62.09,0,0,0,14.12-5.88,9.05,9.05,0,0,0,3.76-3.6,5.53,5.53,0,0,0-3-8.22,13.19,13.19,0,0,0-6.13-.74c-1.74.26-3.49.49-5.2.87-8,1.79-13.15,6.85-15.85,14.48A13.93,13.93,0,0,0,50,41.83a1.44,1.44,0,0,0,1.44,1.54C52.2,43.4,53,43.38,53.79,43.38Z"/></g></g></svg>