<?xml version="1.0" encoding="utf-8"?>
<!-- Generator: Adobe Illustrator 24.0.1, SVG Export Plug-In . SVG Version: 6.00 Build 0)  -->
<svg version="1.1" id="Layer_1" xmlns="http://www.w3.org/2000/svg" xmlns:xlink="http://www.w3.org/1999/xlink" x="0px" y="0px"
	 viewBox="0 0 124.3 49.3" style="enable-background:new 0 0 124.3 49.3;" xml:space="preserve">
<title>arrow-5</title>
<path d="M7.6,24.3c5.7,3.5,11.4,7,17.2,10.4c5.4,3.2,10.3,7.1,15.3,10.8c0.4,0.3,0.7,0.6,1,1c0.4,0.5,0.6,1.2,0.3,1.8
	c-0.4,0.7-1.2,1.1-2,0.9c-1-0.5-2-1.1-2.9-1.7c-4.1-2.7-8.1-5.5-12.4-8.2s-8.8-5.2-13.2-7.9c-2.3-1.4-4.6-2.9-7.3-3.5
	c-1.6-0.4-2.8-1.6-3.3-3.2c-0.5-1.1-0.1-2.3,0.8-3c1.9-1.2,3.8-2.4,5.8-3.4c11.6-6,23.5-11.7,35.5-16.9c1.2-0.5,2.4-1,3.6-1.4
	c0.5-0.2,0.9-0.2,1.4-0.1c0.4,0.1,0.8,0.4,1.1,0.8c0.2,0.4,0.2,0.9,0,1.3c-0.3,0.5-0.8,1-1.4,1.3c-2.2,1.1-4.3,2-6.5,3.1
	c-8.3,4.1-16.6,8.2-24.9,12.3c-2.7,1.4-5.4,2.9-8,4.4c-0.2,0.2-0.3,0.5-0.3,0.7C7.3,24.1,7.4,24.2,7.6,24.3z"/>
<path d="M73.7,26.2V26c-7.2,0-14.4,0-21.6,0c-8.5,0-16.9-0.4-25.4,0.2c-0.8,0-1.6,0-2.4-0.2c-0.6-0.1-1.1-0.7-1.2-1.3
	C23,24,23.3,23.2,24,22.7c0.4-0.2,0.9-0.4,1.3-0.4c5.1-0.2,10.2-0.5,15.3-0.6c3.5-0.1,7,0.2,10.5,0.3c5,0.1,9.9,0.3,14.9,0.3
	c5.4,0,10.9,0.3,16.3,0.7c6.1,0.4,12.1,0.5,18.2,0.8c7.1,0.3,14.1,0.8,21.1,1.1c0.6,0.1,1.3,0.2,1.9,0.3c0.6,0.3,0.9,0.9,0.8,1.6
	c-0.1,0.4-0.4,0.8-0.8,1.1c-0.6,0.3-1.2,0.4-1.8,0.4c-2.4,0.1-4.8,0-7.2-0.1c-8.8-0.9-17.6-0.8-26.3-1.2L73.7,26.2L73.7,26.2z"/>
</svg>
