<?xml version="1.0" encoding="utf-8"?>
<!-- Generator: Adobe Illustrator 24.0.1, SVG Export Plug-In . SVG Version: 6.00 Build 0)  -->
<svg version="1.1" id="Layer_1" xmlns="http://www.w3.org/2000/svg" xmlns:xlink="http://www.w3.org/1999/xlink" x="0px" y="0px"
	 viewBox="0 0 124.3 49.3" style="enable-background:new 0 0 124.3 49.3;" xml:space="preserve">
<style type="text/css">
	.st0{stroke:#FFFFFF;stroke-miterlimit:10;}
</style>
<title>arrow-5</title>
<path class="st0" d="M117.1,23.9c-0.1-0.3-0.2-0.5-0.3-0.7c-2.6-1.5-5.3-3-8-4.4c-8.3-4.1-16.6-8.2-24.9-12.3
	c-2.2-1.1-4.3-2-6.5-3.1c-0.6-0.3-1-0.7-1.4-1.3c-0.2-0.4-0.2-0.9,0-1.3C76.2,0.4,76.6,0.2,77,0c0.5-0.1,0.9-0.1,1.4,0.1
	c1.2,0.4,2.4,0.8,3.6,1.4c12,5.2,23.8,10.9,35.5,16.9c2,1,3.9,2.2,5.8,3.4c1,0.7,1.3,1.9,0.8,3c-0.5,1.6-1.7,2.8-3.3,3.2
	c-2.7,0.6-5,2.1-7.3,3.5c-4.4,2.6-8.8,5.1-13.2,7.9s-8.3,5.5-12.4,8.2c-0.9,0.6-1.9,1.2-2.9,1.7c-0.8,0.2-1.6-0.2-2-0.9
	c-0.3-0.6-0.1-1.3,0.3-1.8c0.3-0.4,0.6-0.7,1-1c5-3.7,9.9-7.6,15.3-10.8c5.8-3.4,11.5-6.9,17.2-10.4C116.9,24.2,117,24.1,117.1,23.9
	z"/>
<path class="st0" d="M50.6,26.3l-14.3,0.7c-8.8,0.4-17.6,0.3-26.3,1.2c-2.4,0.2-4.8,0.2-7.2,0.1c-0.6,0-1.3-0.1-1.8-0.4
	c-0.4-0.3-0.6-0.7-0.8-1.1c-0.1-0.6,0.2-1.3,0.8-1.6c0.6-0.2,1.2-0.3,1.9-0.3c7-0.4,14-0.8,21.1-1.1c6.1-0.3,12.1-0.5,18.2-0.8
	c5.4-0.3,10.8-0.7,16.3-0.7c5,0,9.9-0.2,14.9-0.3c3.5-0.1,7-0.3,10.5-0.3c5.1,0.1,10.2,0.3,15.3,0.6c0.5,0.1,0.9,0.2,1.3,0.4
	c0.7,0.5,1,1.3,0.8,2.1c-0.1,0.7-0.6,1.2-1.2,1.3c-0.8,0.1-1.6,0.2-2.4,0.2C89.1,25.7,80.6,26,72.2,26c-7.2,0-14.4,0-21.6,0
	L50.6,26.3L50.6,26.3z"/>
</svg>
