<?xml version="1.0" standalone="no"?>
<!DOCTYPE svg PUBLIC "-//W3C//DTD SVG 20010904//EN"
 "http://www.w3.org/TR/2001/REC-SVG-20010904/DTD/svg10.dtd">
<svg version="1.0" xmlns="http://www.w3.org/2000/svg"
 width="285.000000pt" height="285.000000pt" viewBox="0 0 285.000000 285.000000"
 preserveAspectRatio="xMidYMid meet">

<g transform="translate(0.000000,285.000000) scale(0.100000,-0.100000)"
fill="#000000" stroke="none">
<path d="M1365 2836 c-16 -8 -328 -313 -692 -677 -706 -709 -683 -683 -668
-767 6 -32 89 -120 673 -705 712 -713 695 -698 779 -683 34 7 108 77 706 674
713 712 698 695 683 779 -7 34 -77 108 -669 702 -382 383 -676 669 -694 677
-40 17 -79 17 -118 0z"/>
</g>
</svg>
