<?xml version="1.0" standalone="no"?>
<!DOCTYPE svg PUBLIC "-//W3C//DTD SVG 20010904//EN"
 "http://www.w3.org/TR/2001/REC-SVG-20010904/DTD/svg10.dtd">
<svg version="1.0" xmlns="http://www.w3.org/2000/svg"
 width="512.000000pt" height="512.000000pt" viewBox="0 0 512.000000 512.000000"
 preserveAspectRatio="xMidYMid meet">

<g transform="translate(0.000000,512.000000) scale(0.100000,-0.100000)"
fill="#000000" stroke="none">
<path d="M2440 4595 c-30 -9 -69 -24 -87 -35 -60 -35 -1758 -1272 -1790 -1303
-85 -84 -142 -241 -130 -357 8 -71 667 -2106 702 -2166 54 -92 155 -171 264
-204 61 -19 98 -20 1166 -20 1068 0 1105 1 1166 20 110 33 209 110 262 201 37
63 698 2100 704 2170 11 114 -45 271 -126 352 -15 16 -423 316 -907 668 -603
438 -896 645 -934 660 -73 28 -214 35 -290 14z"/>
</g>
</svg>
