<?xml version="1.0" encoding="UTF-8" standalone="no"?>
<svg
   xmlns:dc="http://purl.org/dc/elements/1.1/"
   xmlns:cc="http://creativecommons.org/ns#"
   xmlns:rdf="http://www.w3.org/1999/02/22-rdf-syntax-ns#"
   xmlns:svg="http://www.w3.org/2000/svg"
   xmlns="http://www.w3.org/2000/svg"
   height="375.39401"
   width="450.6647"
   xml:space="preserve"
   viewBox="0 0 450.6647 375.39401"
   y="0px"
   x="0px"
   id="OBJECTS"
   version="1.0"><metadata
   id="metadata177"><rdf:RDF><cc:Work
       rdf:about=""><dc:format>image/svg+xml</dc:format><dc:type
         rdf:resource="http://purl.org/dc/dcmitype/StillImage" /></cc:Work></rdf:RDF></metadata><defs
   id="defs175" />
<style
   id="style2"
   type="text/css">
	.st0{fill:#D9ECFF;}
	.st1{fill:#E5DAEA;}
	.st2{fill:#C382E8;}
	.st3{fill:#8A46C6;}
	.st4{fill:#FFFFFF;}
	.st5{fill:#ED7793;}
	.st6{fill:#D65C80;}
	.st7{fill:#C9B6D3;}
	.st8{fill:#CD78FF;}
	.st9{fill:#FFBB99;}
	.st10{fill:#F4A27D;}
	.st11{fill:#FFD1BD;}
	.st12{fill:#FF99B6;}
	.st13{fill:#47236D;}
	.st14{fill:#242472;}
	.st15{fill:#463DA8;}
	.st16{fill:#2E2E89;}
	.st17{fill:#9032C6;}
</style>
<path
   style="fill:#d9ecff"
   id="path4"
   d="m 449.70342,202.79402 c -4.4,-19.2 -19.9,-34.9 -26,-54 -14,-43.5 25.7,-99.999995 -21.8,-135.099995 -48.3,-35.6 -105.1,8.5 -126.6,16.8 -41,15.8 -73.6,2.1 -97.6,-2.4 -39.5,-7.4 -80.999999,2.7 -113.099999,24.9 -65.49999995,45.4 -73.5999999,130.799995 -57.4999999,166.899995 9.2999999,18.4 18.9999999,26.7 31.8999999,34.8 54.4,34.4 111.399999,-27.8 173.299999,-16.3 33.6,6.3 48.5,31.1 78.6,44.8 84.5,38.5 169.8,-32.7 158.8,-80.4 z"
   class="st0" />
<g
   transform="translate(-24.396579,-52.505975)"
   id="g92">
	<ellipse
   style="fill:#e5daea"
   id="ellipse6"
   ry="12.7"
   rx="130.60001"
   cy="395.70001"
   cx="325"
   class="st1" />
	<g
   id="g90">
		<g
   id="g20">
			<path
   style="fill:#c382e8"
   id="path8"
   d="M 412.3,397.4 H 237.8 c -4.2,0 -8.2,-1.2 -11.6,-3.2 -6.5,-3.9 -10.9,-11.1 -10.9,-19.3 V 110.3 c 0,-5.3 1.9,-10.2 4.9,-14.1 4.1,-5.1 10.5,-8.4 17.5,-8.4 h 174.5 c 8.5,0 15.9,4.7 19.7,11.7 1.8,3.2 2.8,6.9 2.8,10.8 V 375 c 0,4.8 -1.5,9.2 -4,12.8 -4,5.8 -10.8,9.6 -18.4,9.6 z"
   class="st2" />
			<path
   style="fill:#8a46c6"
   id="path10"
   d="m 222.9,93.4 c -0.9,0.8 -1.8,1.8 -2.6,2.7 -3.1,3.9 -4.9,8.7 -4.9,14.1 v 264.7 c 0,8.2 4.4,15.3 10.9,19.3 3.4,2 7.4,3.2 11.6,3.2 h 174.5 c 6.1,0 11.6,-2.4 15.6,-6.3 C 397.7,347.4 276.4,171.6 222.9,93.4 Z"
   class="st3" />
			<rect
   style="fill:#ffffff"
   id="rect12"
   height="273.70001"
   width="187.39999"
   class="st4"
   y="105.8"
   x="231.39999" />
			<polygon
   style="fill:#e5daea"
   id="polygon14"
   points="231.4,105.8 418.7,379.4 231.4,379.4 "
   class="st1" />
			<path
   style="fill:#ed7793"
   id="path16"
   d="m 348.1,78.8 c -1.6,0 -3,-1.1 -3.4,-2.7 -1.2,-5.2 -5.9,-9 -11.4,-9 h -16.5 c -5.5,0 -10.2,3.8 -11.4,9 -0.4,1.6 -1.8,2.7 -3.4,2.7 h -12.1 c -1.9,0 -3.5,1.6 -3.5,3.5 v 26 c 0,1.9 1.6,3.5 3.5,3.5 h 70.3 c 1.9,0 3.5,-1.6 3.5,-3.5 v -26 c 0,-1.9 -1.6,-3.5 -3.5,-3.5 z"
   class="st5" />
			<path
   style="fill:#d65c80"
   id="path18"
   d="m 338,99.5 c -17.5,0 -33.1,-8.1 -43.2,-20.7 h -4.9 c -1.9,0 -3.5,1.6 -3.5,3.5 v 26 c 0,1.9 1.6,3.5 3.5,3.5 h 70.3 c 1.9,0 3.5,-1.6 3.5,-3.5 V 93.1 c -7.7,4.1 -16.4,6.4 -25.7,6.4 z"
   class="st6" />
		</g>
		<g
   id="g88">
			<g
   id="g42">
				<g
   id="g38">
					<g
   id="g24">
						<path
   style="fill:#c382e8"
   id="path22"
   d="m 296.3,190.9 h -44.8 v -44.8 h 44.8 z m -41.8,-3 h 38.8 v -38.8 h -38.8 z"
   class="st2" />
					</g>
					<g
   id="g36">
						<path
   style="fill:#c9b6d3"
   id="path26"
   d="m 395.2,149.2 h -87.1 c -0.9,0 -1.6,-0.7 -1.6,-1.6 v 0 c 0,-0.9 0.7,-1.6 1.6,-1.6 h 87.1 c 0.9,0 1.6,0.7 1.6,1.6 v 0 c 0,0.9 -0.7,1.6 -1.6,1.6 z"
   class="st7" />
						<path
   style="fill:#c9b6d3"
   id="path28"
   d="m 395.2,159.6 h -87.1 c -0.9,0 -1.6,-0.7 -1.6,-1.6 v 0 c 0,-0.9 0.7,-1.6 1.6,-1.6 h 87.1 c 0.9,0 1.6,0.7 1.6,1.6 v 0 c 0,0.9 -0.7,1.6 -1.6,1.6 z"
   class="st7" />
						<path
   style="fill:#c9b6d3"
   id="path30"
   d="m 395.2,170 h -87.1 c -0.9,0 -1.6,-0.7 -1.6,-1.6 v 0 c 0,-0.9 0.7,-1.6 1.6,-1.6 h 87.1 c 0.9,0 1.6,0.7 1.6,1.6 v 0 c 0,0.9 -0.7,1.6 -1.6,1.6 z"
   class="st7" />
						<path
   style="fill:#c9b6d3"
   id="path32"
   d="m 395.2,180.5 h -87.1 c -0.9,0 -1.6,-0.7 -1.6,-1.6 v 0 c 0,-0.9 0.7,-1.6 1.6,-1.6 h 87.1 c 0.9,0 1.6,0.7 1.6,1.6 v 0 c 0,0.9 -0.7,1.6 -1.6,1.6 z"
   class="st7" />
						<path
   style="fill:#c9b6d3"
   id="path34"
   d="m 373.4,190.9 h -65.2 c -0.9,0 -1.6,-0.7 -1.6,-1.6 v 0 c 0,-0.9 0.7,-1.6 1.6,-1.6 h 65.2 c 0.9,0 1.6,0.7 1.6,1.6 v 0 c -0.1,0.9 -0.8,1.6 -1.6,1.6 z"
   class="st7" />
					</g>
				</g>
				<polygon
   style="fill:#ed7793"
   id="polygon40"
   points="303.2,145.9 270.5,169.3 264.3,158.8 258.2,164.3 270.5,181.2 "
   class="st5" />
			</g>
			<g
   id="g64">
				<g
   id="g60">
					<g
   id="g46">
						<path
   style="fill:#c382e8"
   id="path44"
   d="m 296.3,267 h -44.8 v -44.8 h 44.8 z m -41.8,-3 h 38.8 v -38.8 h -38.8 z"
   class="st2" />
					</g>
					<g
   id="g58">
						<path
   style="fill:#c9b6d3"
   id="path48"
   d="m 395.2,225.3 h -87.1 c -0.9,0 -1.6,-0.7 -1.6,-1.6 v 0 c 0,-0.9 0.7,-1.6 1.6,-1.6 h 87.1 c 0.9,0 1.6,0.7 1.6,1.6 v 0 c 0,0.9 -0.7,1.6 -1.6,1.6 z"
   class="st7" />
						<path
   style="fill:#c9b6d3"
   id="path50"
   d="m 395.2,235.7 h -87.1 c -0.9,0 -1.6,-0.7 -1.6,-1.6 v 0 c 0,-0.9 0.7,-1.6 1.6,-1.6 h 87.1 c 0.9,0 1.6,0.7 1.6,1.6 v 0 c 0,0.9 -0.7,1.6 -1.6,1.6 z"
   class="st7" />
						<path
   style="fill:#c9b6d3"
   id="path52"
   d="m 395.2,246.1 h -87.1 c -0.9,0 -1.6,-0.7 -1.6,-1.6 v 0 c 0,-0.9 0.7,-1.6 1.6,-1.6 h 87.1 c 0.9,0 1.6,0.7 1.6,1.6 v 0 c 0,0.9 -0.7,1.6 -1.6,1.6 z"
   class="st7" />
						<path
   style="fill:#c9b6d3"
   id="path54"
   d="m 395.2,256.6 h -87.1 c -0.9,0 -1.6,-0.7 -1.6,-1.6 v 0 c 0,-0.9 0.7,-1.6 1.6,-1.6 h 87.1 c 0.9,0 1.6,0.7 1.6,1.6 v 0 c 0,0.9 -0.7,1.6 -1.6,1.6 z"
   class="st7" />
						<path
   style="fill:#c9b6d3"
   id="path56"
   d="m 373.4,267 h -65.2 c -0.9,0 -1.6,-0.7 -1.6,-1.6 v 0 c 0,-0.9 0.7,-1.6 1.6,-1.6 h 65.2 c 0.9,0 1.6,0.7 1.6,1.6 v 0 c -0.1,0.9 -0.8,1.6 -1.6,1.6 z"
   class="st7" />
					</g>
				</g>
				<polygon
   style="fill:#ed7793"
   id="polygon62"
   points="303.2,222 270.5,245.4 264.3,234.9 258.2,240.4 270.5,257.3 "
   class="st5" />
			</g>
			<g
   id="g86">
				<g
   id="g82">
					<g
   id="g68">
						<path
   style="fill:#c382e8"
   id="path66"
   d="m 296.3,343.1 h -44.8 v -44.8 h 44.8 z m -41.8,-3 h 38.8 v -38.8 h -38.8 z"
   class="st2" />
					</g>
					<g
   id="g80">
						<path
   style="fill:#c9b6d3"
   id="path70"
   d="m 395.2,301.4 h -87.1 c -0.9,0 -1.6,-0.7 -1.6,-1.6 v 0 c 0,-0.9 0.7,-1.6 1.6,-1.6 h 87.1 c 0.9,0 1.6,0.7 1.6,1.6 v 0 c 0,0.9 -0.7,1.6 -1.6,1.6 z"
   class="st7" />
						<path
   style="fill:#c9b6d3"
   id="path72"
   d="m 395.2,311.8 h -87.1 c -0.9,0 -1.6,-0.7 -1.6,-1.6 v 0 c 0,-0.9 0.7,-1.6 1.6,-1.6 h 87.1 c 0.9,0 1.6,0.7 1.6,1.6 v 0 c 0,0.9 -0.7,1.6 -1.6,1.6 z"
   class="st7" />
						<path
   style="fill:#c9b6d3"
   id="path74"
   d="m 395.2,322.2 h -87.1 c -0.9,0 -1.6,-0.7 -1.6,-1.6 v 0 c 0,-0.9 0.7,-1.6 1.6,-1.6 h 87.1 c 0.9,0 1.6,0.7 1.6,1.6 v 0 c 0,0.9 -0.7,1.6 -1.6,1.6 z"
   class="st7" />
						<path
   style="fill:#c9b6d3"
   id="path76"
   d="m 395.2,332.7 h -87.1 c -0.9,0 -1.6,-0.7 -1.6,-1.6 v 0 c 0,-0.9 0.7,-1.6 1.6,-1.6 h 87.1 c 0.9,0 1.6,0.7 1.6,1.6 v 0 c 0,0.9 -0.7,1.6 -1.6,1.6 z"
   class="st7" />
						<path
   style="fill:#c9b6d3"
   id="path78"
   d="m 373.4,343.1 h -65.2 c -0.9,0 -1.6,-0.7 -1.6,-1.6 v 0 c 0,-0.9 0.7,-1.6 1.6,-1.6 h 65.2 c 0.9,0 1.6,0.7 1.6,1.6 v 0 c -0.1,0.9 -0.8,1.6 -1.6,1.6 z"
   class="st7" />
					</g>
				</g>
				<polygon
   style="fill:#ed7793"
   id="polygon84"
   points="303.2,298.1 270.5,321.5 264.3,311 258.2,316.5 270.5,333.4 "
   class="st5" />
			</g>
		</g>
	</g>
</g>
<g
   transform="translate(-24.396579,-52.505975)"
   id="g170">
	<ellipse
   style="fill:#e5daea"
   id="ellipse94"
   ry="6.5"
   rx="75.800003"
   cy="421.39999"
   cx="150.7"
   class="st1" />
	<g
   id="g122">
		<path
   style="fill:#c382e8"
   id="path96"
   d="m 53.4,266.5 24,-12 -7.1,-14.2 -24,12 c -0.8,0.4 -1.4,1.1 -1.7,1.9 -0.3,0.8 -0.2,1.7 0.2,2.6 l 4.1,8.2 c 0.4,0.8 1.1,1.4 1.9,1.7 0.8,0.2 1.7,0.2 2.6,-0.2 z"
   class="st2" />
		<path
   style="fill:#8a46c6"
   id="path98"
   d="m 65.5,242.6 5.2,10.3 -22.3,11.1 0.4,0.9 c 0.4,0.8 1.1,1.4 1.9,1.7 0.8,0.3 1.7,0.2 2.6,-0.2 l 24,-12 -7.1,-14.2 z"
   class="st3" />
		<path
   style="fill:#cd78ff"
   id="path100"
   d="m 72.6,256.9 -5.2,-10.3 -22.3,11.1 -0.4,-0.9 c -0.4,-0.8 -0.5,-1.8 -0.2,-2.6 0.3,-0.8 0.9,-1.5 1.7,-1.9 l 24,-12 7.1,14.2 z"
   class="st8" />
		<path
   style="fill:#ed7793"
   id="path102"
   d="M 241.1,175.8 66.6,262.6 c -0.8,0.4 -1.7,0.4 -2.5,0.2 -0.8,-0.3 -1.6,-0.8 -2,-1.7 l -6.3,-12.6 c -0.4,-0.8 -0.4,-1.7 -0.2,-2.5 0.3,-0.8 0.8,-1.5 1.7,-1.9 l 174.5,-86.8 z"
   class="st5" />
		<polygon
   style="fill:#ffbb99"
   id="polygon104"
   points="241.1,175.8 231.8,157.2 256.3,156.6 "
   class="st9" />
		<polygon
   style="fill:#f4a27d"
   id="polygon106"
   points="241.1,175.8 238.6,170.8 256.3,156.6 "
   class="st10" />
		<polygon
   style="fill:#ffd1bd"
   id="polygon108"
   points="234.4,162.3 231.8,157.2 256.3,156.6 "
   class="st11" />
		<polygon
   style="fill:#8a46c6"
   id="polygon110"
   points="256.3,156.6 249.7,156.8 252.2,161.8 "
   class="st3" />
		<path
   style="fill:#d65c80"
   id="path112"
   d="m 61.1,259 1,2.1 c 0.4,0.8 1.1,1.4 2,1.7 0.8,0.2 1.7,0.2 2.5,-0.2 l 174.5,-86.8 -2.5,-5 z"
   class="st6" />
		<path
   style="fill:#ff99b6"
   id="path114"
   d="m 56.9,250.5 -1,-2.1 c -0.4,-0.8 -0.4,-1.8 -0.2,-2.6 0.3,-0.8 0.8,-1.5 1.7,-1.9 l 174.5,-86.8 2.5,5 z"
   class="st12" />
		
			<rect
   style="fill:#cd78ff"
   id="rect116"
   height="5.5999999"
   width="5.6999998"
   class="st8"
   transform="matrix(0.8947,-0.4467,0.4467,0.8947,-101.6573,54.8647)"
   y="240.2"
   x="62.700001" />
		
			<rect
   style="fill:#8a46c6"
   id="rect118"
   height="5.5999999"
   width="5.6999998"
   class="st3"
   transform="matrix(0.8947,-0.4467,0.4467,0.8947,-106.9992,59.3453)"
   y="253.8"
   x="69.5" />
		
			<rect
   style="fill:#c382e8"
   id="rect120"
   height="9.5"
   width="5.6999998"
   class="st2"
   transform="matrix(0.8947,-0.4467,0.4467,0.8947,-104.3451,57.1202)"
   y="245.10001"
   x="66.099998" />
	</g>
	<g
   id="g168">
		<path
   style="fill:#47236d"
   id="path124"
   d="m 142.6,286.5 -11.9,15.8 c 0,0 10.8,7.8 21.9,3.1 11.2,-4.7 33.6,-3.8 34.1,-11.6 0.6,-7.8 -22.3,-12.3 -22.3,-12.3 z"
   class="st13" />
		<path
   style="fill:#c382e8"
   id="path126"
   d="m 171.7,412.6 c 0,0 13.9,0.4 14.2,4.4 0.3,4 -6.7,7.1 -15.6,6.9 -8,-0.2 -14.8,-0.5 -14.7,-2.9 0.2,-2.4 1.3,-8.4 1.3,-8.4 z"
   class="st2" />
		<path
   style="fill:#8a46c6"
   id="path128"
   d="M 171.7,412.6 H 157 c 0,0 -1.1,6 -1.3,8.4 -0.2,2.4 6.6,2.7 14.7,2.9 6.9,0.2 12.6,-1.7 14.7,-4.4 -3.3,-4.8 -13.4,-6.9 -13.4,-6.9 z"
   class="st3" />
		<path
   style="fill:#c382e8"
   id="path130"
   d="m 127.8,404.8 c 0,0 8.4,13.9 5.4,19.4 -3,5.5 -15.6,-7.8 -18.3,-13.7 -3.5,-7.5 -3.4,-8.2 5.6,-17 3.4,-3.3 4,-2 4,-2 0,0 1.8,4.3 2.8,4.7 0.9,0.3 0.5,8.6 0.5,8.6 z"
   class="st2" />
		<path
   style="fill:#8a46c6"
   id="path132"
   d="m 133.2,424.2 c 0.2,-0.4 0.4,-0.8 0.5,-1.3 -1.2,-6.9 -8.8,-16.9 -10.4,-20 -1.7,-3.4 1.3,-5.9 1.3,-5.9 0,0 0.7,-0.8 1.7,-1.9 -0.9,-1.4 -1.9,-3.7 -1.9,-3.7 0,0 -0.6,-1.2 -4,2 -9,8.8 -9.1,9.4 -5.6,17 2.8,5.9 15.4,19.3 18.4,13.8 z"
   class="st3" />
		<path
   style="fill:#47236d"
   id="path134"
   d="m 113.2,404.8 c -0.2,0.2 -0.3,0.5 -0.3,0.7 0.3,1.3 1,2.9 1.9,4.9 2.4,5.2 12.4,16.1 16.8,14.9 0,-1.9 -0.7,-4.5 -2.4,-7.2 -3.9,-5.9 -13.6,-16.6 -16,-13.3 z"
   class="st13" />
		<path
   style="fill:#242472"
   id="path136"
   d="m 136.1,292.6 c 0,0 0.3,0.7 0.7,2.1 4.4,12.8 27.6,82.6 20.1,118 0,0 9.8,1.1 14.7,0 0,0 6.1,-54.9 -4,-85.8 C 161.2,307.2 155.2,285 155.2,285"
   class="st14" />
		<path
   style="fill:#463da8"
   id="path138"
   d="m 183.1,286.5 c 0,0 6.1,67 -55.3,118.3 0,0 -0.5,-7.6 -7.3,-11.3 0,0 41.2,-60.5 36.7,-75.2 -4.5,-14.8 -15.7,-20.2 -14.6,-31.7 1.1,-11.6 21.2,-12.6 21.2,-12.6 z"
   class="st15" />
		<path
   style="fill:#2e2e89"
   id="path140"
   d="m 182.4,305.4 c 1.3,-11.6 0.6,-18.9 0.6,-18.9 L 163.7,274 c 0,0 -20,1 -21.2,12.6 -1.1,11.6 10,17 14.6,31.7 4.5,14.8 -36.7,75.2 -36.7,75.2 1.8,1 3.1,2.2 4.1,3.5 37.9,-34.9 49,-69.4 57.9,-91.6 z"
   class="st16" />
		<path
   style="fill:#c382e8"
   id="path142"
   d="m 202.7,194.7 c 0,0 -3.6,14.8 -10.4,18.5 -6.8,3.8 -33.4,7 -33.4,7 l -9.8,-1.2 -23.5,22 c 0,0 -6.5,8.6 -14.2,13.7 -7.7,5 -22.8,-4.8 -22.8,-4.8 l -5.7,5.9 c -1.3,-1.4 14.2,13.1 22.8,13.4 11,0.4 25.1,-9.8 25.1,-9.8 l 0.6,-0.5 c 0.1,0.4 0.1,0.8 0.2,1.2 2.1,14.5 -0.8,42.1 -0.8,42.1 14.1,-16.4 56,-8.5 56,-8.5 -1.2,-20.4 -14,-59.1 -14,-59.1 0,0 19.2,-5.7 27.1,-11 7.9,-5.3 11.9,-26.2 11.9,-26.2 z"
   class="st2" />
		<g
   id="g148">
			<path
   style="fill:#8a46c6"
   id="path144"
   d="m 201.5,214.2 c -4.4,6 -31.2,19 -45.3,13.1 -4.2,-1.7 -6.8,-4.3 -8.5,-7 l -3.5,3.3 c -1.8,4.2 -3.3,10.2 -8,16 -23.7,28.8 -38.6,19.8 -50,11.7 l -3.2,4.6 c 1.2,0.9 14.9,13.1 22.8,13.4 11,0.4 25.1,-9.8 25.1,-9.8 l 0.6,-0.5 c 0.1,0.4 0.1,0.8 0.2,1.2 2.1,14.5 -0.8,42.1 -0.8,42.1 9.1,-10.6 29.9,-11.1 43.4,-10.1 -0.9,-23.5 -9.7,-56.5 -9.7,-56.5 l 8.2,-1 c 0,0 19.2,-5.7 27.1,-11 7.9,-5.3 11.9,-26.2 11.9,-26.2 l -3.8,-1.2 c -1.5,5.8 -3.8,14.2 -6.5,17.9 z"
   class="st3" />
			<path
   style="fill:#9032c6"
   id="path146"
   d="m 82.8,255.9 v 0 c -0.1,-0.1 -0.1,-0.1 0,0 z"
   class="st17" />
		</g>
		<path
   style="fill:#f4a27d"
   id="path150"
   d="m 157.6,205.1 c 0,0 -1.5,10.3 1.3,15.1 0,0 -3.8,6.4 -9.8,3.4 -6.1,-3 -6.5,-14.2 -6.5,-14.2 l 8.8,-9.6 z"
   class="st10" />
		<path
   style="fill:#ffbb99"
   id="path152"
   d="m 144.5,173.2 c 0,0 13.2,0.4 18.5,16.3 5.2,15.8 -4.4,26.6 -16.2,20.9 -11.7,-5.7 -18,-27.2 -18,-27.2 z"
   class="st9" />
		<path
   style="fill:#f4a27d"
   id="path154"
   d="m 164.4,199.5 c -3.4,1.4 -8.4,1.9 -13.7,-3.3 -6.2,-6 -6.2,-16.3 -5.3,-23 -0.6,-0.1 -0.9,-0.1 -0.9,-0.1 l -12.2,7.8 -1.3,4.3 1.2,6.8 c 3,6.6 7.9,15 14.6,18.3 9,4.4 16.8,-0.9 17.6,-10.8 z"
   class="st10" />
		<path
   style="fill:#463da8"
   id="path156"
   d="m 147.2,172.4 c 0,0 1.4,-4.7 -1.8,-9.2 -3.2,-4.5 -15.1,-6.2 -16.6,2.3 -1.5,8.5 -1.6,14.7 -1.6,14.7 0,0 -12.2,0.8 -14.1,16.5 -1.4,11.4 19.6,38.7 9.6,42.9 -10,4.2 -14.3,-1.4 -13.2,-6 0,0 -6.4,8.5 -0.2,16.5 6.2,8 32.9,5.3 40.9,-13.2 8.1,-18.4 -1.4,-35 -1.4,-35 0,0 -4,3.1 -6.4,-1 -2.4,-4.1 3.3,-5 3.3,-5 0,0 -4.7,-10.8 -8.5,-10.6 0.2,0 9.9,-7.1 10,-12.9 z"
   class="st15" />
		<path
   style="fill:#ffbb99"
   id="path158"
   d="m 202.3,196.2 c 0,0 -5.1,-4.7 -5,-8.1 0.1,-3.4 2.7,-0.8 4.3,0.3 1.6,1.1 5.3,0.6 7.8,-2.4 2.6,-3 7.1,-6.9 8.5,-2.3 1.4,4.6 -2.8,13.1 -6.6,15.4 0.1,0 -4,-3.5 -9,-2.9 z"
   class="st9" />
		<path
   style="fill:#ffbb99"
   id="path160"
   d="m 84.2,257.2 c 0,0 0.4,-4.3 5.8,-6.4 0,0 3.1,-7.7 2.2,-10.5 -0.9,-2.8 -2.7,0.2 -3.7,2.2 -0.9,2 -3,3.1 -7.1,0 -4.1,-3.1 -9.8,-1.3 -9.1,4.2 0.5,3.9 7.6,10.3 11.9,10.5 z"
   class="st9" />
		<path
   style="fill:#f4a27d"
   id="path162"
   d="m 218,184.1 c -1.8,9 -10.3,12.8 -10.3,12.8 l 0.1,0.1 c 2.2,0.9 3.6,2 3.6,2 3.6,-2.1 7.6,-10.2 6.6,-14.9 z"
   class="st10" />
		<path
   style="fill:#f4a27d"
   id="path164"
   d="m 84.2,257.2 c 0,0 0.3,-2.7 3.1,-4.8 -7.2,1.1 -11.7,-5.8 -13.7,-9.8 -0.9,1 -1.4,2.4 -1.2,4.3 0.4,3.7 7.5,10.1 11.8,10.3 z"
   class="st10" />
		<path
   style="fill:#2e2e89"
   id="path166"
   d="m 150.3,236.8 c 6,-13.8 2.3,-26.5 0,-32 -5.2,3 -23,11.4 -29.9,-5 -1.9,-4.6 -2.5,-9.8 -2.2,-15.1 -2.3,2.4 -4.4,6.2 -5.1,11.9 -1.4,11.4 19.6,38.7 9.6,42.9 -10,4.2 -14.3,-1.4 -13.2,-6 0,0 -6.4,8.5 -0.2,16.5 6.3,8 33,5.3 41,-13.2 z"
   class="st16" />
	</g>
</g>
</svg>